<?xml version="1.0" encoding="UTF-8" standalone="no"?>
<!DOCTYPE svg PUBLIC "-//W3C//DTD SVG 1.1//EN"
 "http://www.w3.org/Graphics/SVG/1.1/DTD/svg11.dtd">
<!-- Generated by graphviz version 12.2.1 (20241206.2353)
 -->
<!-- Title: knowledge_map Pages: 1 -->
<svg width="1111pt" height="999pt"
 viewBox="0.00 0.00 1111.11 998.96" xmlns="http://www.w3.org/2000/svg" xmlns:xlink="http://www.w3.org/1999/xlink">
<g id="graph0" class="graph" transform="scale(1 1) rotate(0) translate(4 994.96)">
<title>knowledge_map</title>
<!-- root -->
<g id="node1" class="node">
<title>root</title>
<ellipse fill="#222222" stroke="black" cx="539.33" cy="-500.01" rx="86.15" ry="18"/>
<text text-anchor="middle" x="539.33" y="-493.06" font-family="Helvetica,sans-Serif" font-size="16.00" fill="white">Kevin P. Inscoe</text>
</g>
<!-- c0 -->
<g id="node2" class="node">
<title>c0</title>
<path fill="#2b6cb0" stroke="black" d="M926.01,-625.02C926.01,-625.02 671.51,-625.02 671.51,-625.02 665.51,-625.02 659.51,-619.02 659.51,-613.02 659.51,-613.02 659.51,-601.02 659.51,-601.02 659.51,-595.02 665.51,-589.02 671.51,-589.02 671.51,-589.02 926.01,-589.02 926.01,-589.02 932.01,-589.02 938.01,-595.02 938.01,-601.02 938.01,-601.02 938.01,-613.02 938.01,-613.02 938.01,-619.02 932.01,-625.02 926.01,-625.02"/>
<text text-anchor="middle" x="798.76" y="-602.19" font-family="Helvetica,sans-Serif" font-size="11.00" fill="white">Compute Infrastructure and Site Reliability Engineering</text>
</g>
<!-- root&#45;&#45;c0 -->
<g id="edge1" class="edge">
<title>root&#45;&#45;c0</title>
<path fill="none" stroke="#94a3b8" d="M579.02,-516.38C626.28,-535.88 705.02,-568.35 754.29,-588.68"/>
</g>
<!-- c1 -->
<g id="node9" class="node">
<title>c1</title>
<path fill="#2b6cb0" stroke="black" d="M818.69,-716.47C818.69,-716.47 660.94,-716.47 660.94,-716.47 654.94,-716.47 648.94,-710.47 648.94,-704.47 648.94,-704.47 648.94,-692.47 648.94,-692.47 648.94,-686.47 654.94,-680.47 660.94,-680.47 660.94,-680.47 818.69,-680.47 818.69,-680.47 824.69,-680.47 830.69,-686.47 830.69,-692.47 830.69,-692.47 830.69,-704.47 830.69,-704.47 830.69,-710.47 824.69,-716.47 818.69,-716.47"/>
<text text-anchor="middle" x="739.82" y="-693.64" font-family="Helvetica,sans-Serif" font-size="11.00" fill="white">Playbooks and Skill Demonstration</text>
</g>
<!-- root&#45;&#45;c1 -->
<g id="edge8" class="edge">
<title>root&#45;&#45;c1</title>
<path fill="none" stroke="#94a3b8" d="M554.04,-517.81C575.43,-543.34 616.86,-591.39 655.81,-628.72 675.11,-647.21 698.63,-666.49 715.87,-680.08"/>
</g>
<!-- c2 -->
<g id="node12" class="node">
<title>c2</title>
<path fill="#2b6cb0" stroke="black" d="M630.83,-760.51C630.83,-760.51 443.83,-760.51 443.83,-760.51 437.83,-760.51 431.83,-754.51 431.83,-748.51 431.83,-748.51 431.83,-736.51 431.83,-736.51 431.83,-730.51 437.83,-724.51 443.83,-724.51 443.83,-724.51 630.83,-724.51 630.83,-724.51 636.83,-724.51 642.83,-730.51 642.83,-736.51 642.83,-736.51 642.83,-748.51 642.83,-748.51 642.83,-754.51 636.83,-760.51 630.83,-760.51"/>
<text text-anchor="middle" x="537.33" y="-737.69" font-family="Helvetica,sans-Serif" font-size="11.00" fill="white">Proof of Concept and Moonshot Projects</text>
</g>
<!-- root&#45;&#45;c2 -->
<g id="edge11" class="edge">
<title>root&#45;&#45;c2</title>
<path fill="none" stroke="#94a3b8" d="M539.18,-518.24C538.81,-563.18 537.85,-678.91 537.48,-724.07"/>
</g>
<!-- c3 -->
<g id="node15" class="node">
<title>c3</title>
<path fill="#2b6cb0" stroke="black" d="M411.67,-729.54C411.67,-729.54 310.17,-729.54 310.17,-729.54 304.17,-729.54 298.17,-723.54 298.17,-717.54 298.17,-717.54 298.17,-705.54 298.17,-705.54 298.17,-699.54 304.17,-693.54 310.17,-693.54 310.17,-693.54 411.67,-693.54 411.67,-693.54 417.67,-693.54 423.67,-699.54 423.67,-705.54 423.67,-705.54 423.67,-717.54 423.67,-717.54 423.67,-723.54 417.67,-729.54 411.67,-729.54"/>
<text text-anchor="middle" x="360.92" y="-706.71" font-family="Helvetica,sans-Serif" font-size="11.00" fill="white">Software Development</text>
</g>
<!-- root&#45;&#45;c3 -->
<g id="edge14" class="edge">
<title>root&#45;&#45;c3</title>
<path fill="none" stroke="#94a3b8" d="M524.12,-518.05C490.5,-557.91 410.17,-653.15 376.35,-693.25"/>
</g>
<!-- c4 -->
<g id="node19" class="node">
<title>c4</title>
<path fill="#2b6cb0" stroke="black" d="M341.93,-675.81C341.93,-675.81 295.93,-675.81 295.93,-675.81 289.93,-675.81 283.93,-669.81 283.93,-663.81 283.93,-663.81 283.93,-651.81 283.93,-651.81 283.93,-645.81 289.93,-639.81 295.93,-639.81 295.93,-639.81 341.93,-639.81 341.93,-639.81 347.93,-639.81 353.93,-645.81 353.93,-651.81 353.93,-651.81 353.93,-663.81 353.93,-663.81 353.93,-669.81 347.93,-675.81 341.93,-675.81"/>
<text text-anchor="middle" x="318.93" y="-652.99" font-family="Helvetica,sans-Serif" font-size="11.00" fill="white">Distribution</text>
</g>
<!-- root&#45;&#45;c4 -->
<g id="edge18" class="edge">
<title>root&#45;&#45;c4</title>
<path fill="none" stroke="#94a3b8" d="M514.91,-517.5C472.88,-547.6 387.29,-608.87 344.49,-639.51"/>
</g>
<!-- c5 -->
<g id="node22" class="node">
<title>c5</title>
<path fill="#2b6cb0" stroke="black" d="M308.48,-612.35C308.48,-612.35 278.48,-612.35 278.48,-612.35 272.48,-612.35 266.48,-606.35 266.48,-600.35 266.48,-600.35 266.48,-588.35 266.48,-588.35 266.48,-582.35 272.48,-576.35 278.48,-576.35 278.48,-576.35 308.48,-576.35 308.48,-576.35 314.48,-576.35 320.48,-582.35 320.48,-588.35 320.48,-588.35 320.48,-600.35 320.48,-600.35 320.48,-606.35 314.48,-612.35 308.48,-612.35"/>
<text text-anchor="middle" x="293.48" y="-589.52" font-family="Helvetica,sans-Serif" font-size="11.00" fill="white">AI</text>
</g>
<!-- root&#45;&#45;c5 -->
<g id="edge21" class="edge">
<title>root&#45;&#45;c5</title>
<path fill="none" stroke="#94a3b8" d="M497.35,-516.12C446.88,-535.49 363.64,-567.43 320.81,-583.86"/>
</g>
<!-- c6 -->
<g id="node25" class="node">
<title>c6</title>
<path fill="#2b6cb0" stroke="black" d="M306.11,-538.39C306.11,-538.39 276.11,-538.39 276.11,-538.39 270.11,-538.39 264.11,-532.39 264.11,-526.39 264.11,-526.39 264.11,-514.39 264.11,-514.39 264.11,-508.39 270.11,-502.39 276.11,-502.39 276.11,-502.39 306.11,-502.39 306.11,-502.39 312.11,-502.39 318.11,-508.39 318.11,-514.39 318.11,-514.39 318.11,-526.39 318.11,-526.39 318.11,-532.39 312.11,-538.39 306.11,-538.39"/>
<text text-anchor="middle" x="291.11" y="-515.57" font-family="Helvetica,sans-Serif" font-size="11.00" fill="white">Tools</text>
</g>
<!-- root&#45;&#45;c6 -->
<g id="edge24" class="edge">
<title>root&#45;&#45;c6</title>
<path fill="none" stroke="#94a3b8" d="M458.74,-506.63C410.47,-510.59 352.14,-515.38 318.56,-518.14"/>
</g>
<!-- c7 -->
<g id="node28" class="node">
<title>c7</title>
<path fill="#2b6cb0" stroke="black" d="M307.73,-462.15C307.73,-462.15 257.98,-462.15 257.98,-462.15 251.98,-462.15 245.98,-456.15 245.98,-450.15 245.98,-450.15 245.98,-438.15 245.98,-438.15 245.98,-432.15 251.98,-426.15 257.98,-426.15 257.98,-426.15 307.73,-426.15 307.73,-426.15 313.73,-426.15 319.73,-432.15 319.73,-438.15 319.73,-438.15 319.73,-450.15 319.73,-450.15 319.73,-456.15 313.73,-462.15 307.73,-462.15"/>
<text text-anchor="middle" x="282.85" y="-439.33" font-family="Helvetica,sans-Serif" font-size="11.00" fill="white">Applications</text>
</g>
<!-- root&#45;&#45;c7 -->
<g id="edge27" class="edge">
<title>root&#45;&#45;c7</title>
<path fill="none" stroke="#94a3b8" d="M478.88,-486.85C429.56,-476.11 361.47,-461.28 319.89,-452.22"/>
</g>
<!-- c8 -->
<g id="node31" class="node">
<title>c8</title>
<path fill="#2b6cb0" stroke="black" d="M323.23,-393.16C323.23,-393.16 284.73,-393.16 284.73,-393.16 278.73,-393.16 272.73,-387.16 272.73,-381.16 272.73,-381.16 272.73,-369.16 272.73,-369.16 272.73,-363.16 278.73,-357.16 284.73,-357.16 284.73,-357.16 323.23,-357.16 323.23,-357.16 329.23,-357.16 335.23,-363.16 335.23,-369.16 335.23,-369.16 335.23,-381.16 335.23,-381.16 335.23,-387.16 329.23,-393.16 323.23,-393.16"/>
<text text-anchor="middle" x="303.98" y="-370.34" font-family="Helvetica,sans-Serif" font-size="11.00" fill="white">Hardware</text>
</g>
<!-- root&#45;&#45;c8 -->
<g id="edge30" class="edge">
<title>root&#45;&#45;c8</title>
<path fill="none" stroke="#94a3b8" d="M507.1,-482.92C461.91,-458.94 380.23,-415.61 335.45,-391.86"/>
</g>
<!-- c9 -->
<g id="node34" class="node">
<title>c9</title>
<path fill="#2b6cb0" stroke="black" d="M428.1,-328.47C428.1,-328.47 316.1,-328.47 316.1,-328.47 310.1,-328.47 304.1,-322.47 304.1,-316.47 304.1,-316.47 304.1,-304.47 304.1,-304.47 304.1,-298.47 310.1,-292.47 316.1,-292.47 316.1,-292.47 428.1,-292.47 428.1,-292.47 434.1,-292.47 440.1,-298.47 440.1,-304.47 440.1,-304.47 440.1,-316.47 440.1,-316.47 440.1,-322.47 434.1,-328.47 428.1,-328.47"/>
<text text-anchor="middle" x="372.1" y="-305.64" font-family="Helvetica,sans-Serif" font-size="11.00" fill="white">Knowledge Management</text>
</g>
<!-- root&#45;&#45;c9 -->
<g id="edge33" class="edge">
<title>root&#45;&#45;c9</title>
<path fill="none" stroke="#94a3b8" d="M523.3,-481.84C491.41,-445.7 420.38,-365.18 388.33,-328.86"/>
</g>
<!-- c10 -->
<g id="node38" class="node">
<title>c10</title>
<path fill="#2b6cb0" stroke="black" d="M564.12,-284.42C564.12,-284.42 448.37,-284.42 448.37,-284.42 442.37,-284.42 436.37,-278.42 436.37,-272.42 436.37,-272.42 436.37,-260.42 436.37,-260.42 436.37,-254.42 442.37,-248.42 448.37,-248.42 448.37,-248.42 564.12,-248.42 564.12,-248.42 570.12,-248.42 576.12,-254.42 576.12,-260.42 576.12,-260.42 576.12,-272.42 576.12,-272.42 576.12,-278.42 570.12,-284.42 564.12,-284.42"/>
<text text-anchor="middle" x="506.24" y="-261.59" font-family="Helvetica,sans-Serif" font-size="11.00" fill="white">Publishing and Markdown</text>
</g>
<!-- root&#45;&#45;c10 -->
<g id="edge37" class="edge">
<title>root&#45;&#45;c10</title>
<path fill="none" stroke="#94a3b8" d="M536.74,-481.68C530.55,-438.02 515,-328.24 508.83,-284.66"/>
</g>
<!-- c11 -->
<g id="node41" class="node">
<title>c11</title>
<path fill="#2b6cb0" stroke="black" d="M661.26,-289.64C661.26,-289.64 597.26,-289.64 597.26,-289.64 591.26,-289.64 585.26,-283.64 585.26,-277.64 585.26,-277.64 585.26,-265.64 585.26,-265.64 585.26,-259.64 591.26,-253.64 597.26,-253.64 597.26,-253.64 661.26,-253.64 661.26,-253.64 667.26,-253.64 673.26,-259.64 673.26,-265.64 673.26,-265.64 673.26,-277.64 673.26,-277.64 673.26,-283.64 667.26,-289.64 661.26,-289.64"/>
<text text-anchor="middle" x="629.26" y="-266.82" font-family="Helvetica,sans-Serif" font-size="11.00" fill="white">Amateur Radio</text>
</g>
<!-- root&#45;&#45;c11 -->
<g id="edge40" class="edge">
<title>root&#45;&#45;c11</title>
<path fill="none" stroke="#94a3b8" d="M546.54,-481.71C563.38,-438.95 605.15,-332.88 622.02,-290.03"/>
</g>
<!-- c12 -->
<g id="node44" class="node">
<title>c12</title>
<path fill="#2b6cb0" stroke="black" d="M748.43,-334.66C748.43,-334.66 715.93,-334.66 715.93,-334.66 709.93,-334.66 703.93,-328.66 703.93,-322.66 703.93,-322.66 703.93,-310.66 703.93,-310.66 703.93,-304.66 709.93,-298.66 715.93,-298.66 715.93,-298.66 748.43,-298.66 748.43,-298.66 754.43,-298.66 760.43,-304.66 760.43,-310.66 760.43,-310.66 760.43,-322.66 760.43,-322.66 760.43,-328.66 754.43,-334.66 748.43,-334.66"/>
<text text-anchor="middle" x="732.18" y="-311.83" font-family="Helvetica,sans-Serif" font-size="11.00" fill="white">Weather</text>
</g>
<!-- root&#45;&#45;c12 -->
<g id="edge43" class="edge">
<title>root&#45;&#45;c12</title>
<path fill="none" stroke="#94a3b8" d="M558.18,-482.1C594.95,-447.14 675.91,-370.15 712.97,-334.92"/>
</g>
<!-- c13 -->
<g id="node48" class="node">
<title>c13</title>
<path fill="#2b6cb0" stroke="black" d="M849.95,-407.46C849.95,-407.46 711.7,-407.46 711.7,-407.46 705.7,-407.46 699.7,-401.46 699.7,-395.46 699.7,-395.46 699.7,-383.46 699.7,-383.46 699.7,-377.46 705.7,-371.46 711.7,-371.46 711.7,-371.46 849.95,-371.46 849.95,-371.46 855.95,-371.46 861.95,-377.46 861.95,-383.46 861.95,-383.46 861.95,-395.46 861.95,-395.46 861.95,-401.46 855.95,-407.46 849.95,-407.46"/>
<text text-anchor="middle" x="780.82" y="-384.64" font-family="Helvetica,sans-Serif" font-size="11.00" fill="white">Project and Task Management</text>
</g>
<!-- root&#45;&#45;c13 -->
<g id="edge47" class="edge">
<title>root&#45;&#45;c13</title>
<path fill="none" stroke="#94a3b8" d="M575.75,-483.34C620.02,-463.08 694.5,-428.98 740.48,-407.93"/>
</g>
<!-- c14 -->
<g id="node51" class="node">
<title>c14</title>
<path fill="#2b6cb0" stroke="black" d="M813.99,-479.76C813.99,-479.76 783.99,-479.76 783.99,-479.76 777.99,-479.76 771.99,-473.76 771.99,-467.76 771.99,-467.76 771.99,-455.76 771.99,-455.76 771.99,-449.76 777.99,-443.76 783.99,-443.76 783.99,-443.76 813.99,-443.76 813.99,-443.76 819.99,-443.76 825.99,-449.76 825.99,-455.76 825.99,-455.76 825.99,-467.76 825.99,-467.76 825.99,-473.76 819.99,-479.76 813.99,-479.76"/>
<text text-anchor="middle" x="798.99" y="-456.93" font-family="Helvetica,sans-Serif" font-size="11.00" fill="white">Outliers</text>
</g>
<!-- root&#45;&#45;c14 -->
<g id="edge50" class="edge">
<title>root&#45;&#45;c14</title>
<path fill="none" stroke="#94a3b8" d="M610.63,-489.51C663.93,-481.66 733.87,-471.35 771.75,-465.77"/>
</g>
<!-- c0s0 -->
<g id="node3" class="node">
<title>c0s0</title>
<path fill="#e2e8f0" stroke="black" d="M1047.13,-555.29C1047.13,-555.29 1017.13,-555.29 1017.13,-555.29 1011.13,-555.29 1005.13,-549.29 1005.13,-543.29 1005.13,-543.29 1005.13,-531.29 1005.13,-531.29 1005.13,-525.29 1011.13,-519.29 1017.13,-519.29 1017.13,-519.29 1047.13,-519.29 1047.13,-519.29 1053.13,-519.29 1059.13,-525.29 1059.13,-531.29 1059.13,-531.29 1059.13,-543.29 1059.13,-543.29 1059.13,-549.29 1053.13,-555.29 1047.13,-555.29"/>
<text text-anchor="middle" x="1032.13" y="-532.46" font-family="Helvetica,sans-Serif" font-size="11.00">AWS</text>
</g>
<!-- c0&#45;&#45;c0s0 -->
<g id="edge2" class="edge">
<title>c0&#45;&#45;c0s0</title>
<path fill="none" stroke="#94a3b8" d="M860.38,-588.6C907.24,-574.6 969.47,-556.01 1004.72,-545.48"/>
</g>
<!-- c0s1 -->
<g id="node4" class="node">
<title>c0s1</title>
<path fill="#e2e8f0" stroke="black" d="M1038.55,-631.22C1038.55,-631.22 1008.55,-631.22 1008.55,-631.22 1002.55,-631.22 996.55,-625.22 996.55,-619.22 996.55,-619.22 996.55,-607.22 996.55,-607.22 996.55,-601.22 1002.55,-595.22 1008.55,-595.22 1008.55,-595.22 1038.55,-595.22 1038.55,-595.22 1044.55,-595.22 1050.55,-601.22 1050.55,-607.22 1050.55,-607.22 1050.55,-619.22 1050.55,-619.22 1050.55,-625.22 1044.55,-631.22 1038.55,-631.22"/>
<text text-anchor="middle" x="1023.55" y="-608.4" font-family="Helvetica,sans-Serif" font-size="11.00">Azure</text>
</g>
<!-- c0&#45;&#45;c0s1 -->
<g id="edge3" class="edge">
<title>c0&#45;&#45;c0s1</title>
<path fill="none" stroke="#94a3b8" d="M938.24,-610.87C960.27,-611.47 980.82,-612.04 996.23,-612.47"/>
</g>
<!-- c0s2 -->
<g id="node5" class="node">
<title>c0s2</title>
<path fill="#e2e8f0" stroke="black" d="M1026.86,-704.16C1026.86,-704.16 980.11,-704.16 980.11,-704.16 974.11,-704.16 968.11,-698.16 968.11,-692.16 968.11,-692.16 968.11,-680.16 968.11,-680.16 968.11,-674.16 974.11,-668.16 980.11,-668.16 980.11,-668.16 1026.86,-668.16 1026.86,-668.16 1032.86,-668.16 1038.86,-674.16 1038.86,-680.16 1038.86,-680.16 1038.86,-692.16 1038.86,-692.16 1038.86,-698.16 1032.86,-704.16 1026.86,-704.16"/>
<text text-anchor="middle" x="1003.49" y="-681.34" font-family="Helvetica,sans-Serif" font-size="11.00">Kubernetes</text>
</g>
<!-- c0&#45;&#45;c0s2 -->
<g id="edge4" class="edge">
<title>c0&#45;&#45;c0s2</title>
<path fill="none" stroke="#94a3b8" d="M846.5,-625.47C883.6,-639.81 934.24,-659.39 967.86,-672.39"/>
</g>
<!-- c0s3 -->
<g id="node6" class="node">
<title>c0s3</title>
<path fill="#e2e8f0" stroke="black" d="M1032.93,-771.57C1032.93,-771.57 905.93,-771.57 905.93,-771.57 899.93,-771.57 893.93,-765.57 893.93,-759.57 893.93,-759.57 893.93,-747.57 893.93,-747.57 893.93,-741.57 899.93,-735.57 905.93,-735.57 905.93,-735.57 1032.93,-735.57 1032.93,-735.57 1038.93,-735.57 1044.93,-741.57 1044.93,-747.57 1044.93,-747.57 1044.93,-759.57 1044.93,-759.57 1044.93,-765.57 1038.93,-771.57 1032.93,-771.57"/>
<text text-anchor="middle" x="969.43" y="-748.74" font-family="Helvetica,sans-Serif" font-size="11.00">Infrastructure as Code (IaC)</text>
</g>
<!-- c0&#45;&#45;c0s3 -->
<g id="edge5" class="edge">
<title>c0&#45;&#45;c0s3</title>
<path fill="none" stroke="#94a3b8" d="M820.03,-625.28C852.73,-653.36 915.03,-706.85 947.89,-735.07"/>
</g>
<!-- c0s4 -->
<g id="node7" class="node">
<title>c0s4</title>
<path fill="#e2e8f0" stroke="black" d="M947.22,-831.14C947.22,-831.14 893.72,-831.14 893.72,-831.14 887.72,-831.14 881.72,-825.14 881.72,-819.14 881.72,-819.14 881.72,-807.14 881.72,-807.14 881.72,-801.14 887.72,-795.14 893.72,-795.14 893.72,-795.14 947.22,-795.14 947.22,-795.14 953.22,-795.14 959.22,-801.14 959.22,-807.14 959.22,-807.14 959.22,-819.14 959.22,-819.14 959.22,-825.14 953.22,-831.14 947.22,-831.14"/>
<text text-anchor="middle" x="920.47" y="-808.32" font-family="Helvetica,sans-Serif" font-size="11.00">Observability</text>
</g>
<!-- c0&#45;&#45;c0s4 -->
<g id="edge6" class="edge">
<title>c0&#45;&#45;c0s4</title>
<path fill="none" stroke="#94a3b8" d="M808.21,-625.36C827.72,-663.05 872.12,-747.98 890.23,-775.27 894.6,-781.86 899.84,-788.71 904.72,-794.75"/>
</g>
<!-- c0s5 -->
<g id="node8" class="node">
<title>c0s5</title>
<path fill="#e2e8f0" stroke="black" d="M896.08,-881.77C896.08,-881.77 814.08,-881.77 814.08,-881.77 808.08,-881.77 802.08,-875.77 802.08,-869.77 802.08,-869.77 802.08,-857.77 802.08,-857.77 802.08,-851.77 808.08,-845.77 814.08,-845.77 814.08,-845.77 896.08,-845.77 896.08,-845.77 902.08,-845.77 908.08,-851.77 908.08,-857.77 908.08,-857.77 908.08,-869.77 908.08,-869.77 908.08,-875.77 902.08,-881.77 896.08,-881.77"/>
<text text-anchor="middle" x="855.08" y="-858.94" font-family="Helvetica,sans-Serif" font-size="11.00">Operational tooling</text>
</g>
<!-- c0&#45;&#45;c0s5 -->
<g id="edge7" class="edge">
<title>c0&#45;&#45;c0s5</title>
<path fill="none" stroke="#94a3b8" d="M810.54,-625.48C818.64,-639.11 828.89,-658.4 834.39,-676.77 852.31,-736.53 855.01,-811.21 855.22,-845.28"/>
</g>
<!-- c1s0 -->
<g id="node10" class="node">
<title>c1s0</title>
<path fill="#e2e8f0" stroke="black" d="M803.07,-925.79C803.07,-925.79 762.32,-925.79 762.32,-925.79 756.32,-925.79 750.32,-919.79 750.32,-913.79 750.32,-913.79 750.32,-901.79 750.32,-901.79 750.32,-895.79 756.32,-889.79 762.32,-889.79 762.32,-889.79 803.07,-889.79 803.07,-889.79 809.07,-889.79 815.07,-895.79 815.07,-901.79 815.07,-901.79 815.07,-913.79 815.07,-913.79 815.07,-919.79 809.07,-925.79 803.07,-925.79"/>
<text text-anchor="middle" x="782.69" y="-902.96" font-family="Helvetica,sans-Serif" font-size="11.00">Playbooks</text>
</g>
<!-- c1&#45;&#45;c1s0 -->
<g id="edge9" class="edge">
<title>c1&#45;&#45;c1s0</title>
<path fill="none" stroke="#94a3b8" d="M743.55,-716.68C751.66,-756.27 770.81,-849.79 778.94,-889.47"/>
</g>
<!-- c1s1 -->
<g id="node11" class="node">
<title>c1s1</title>
<path fill="#e2e8f0" stroke="black" d="M730.28,-961.91C730.28,-961.91 670.03,-961.91 670.03,-961.91 664.03,-961.91 658.03,-955.91 658.03,-949.91 658.03,-949.91 658.03,-937.91 658.03,-937.91 658.03,-931.91 664.03,-925.91 670.03,-925.91 670.03,-925.91 730.28,-925.91 730.28,-925.91 736.28,-925.91 742.28,-931.91 742.28,-937.91 742.28,-937.91 742.28,-949.91 742.28,-949.91 742.28,-955.91 736.28,-961.91 730.28,-961.91"/>
<text text-anchor="middle" x="700.16" y="-939.08" font-family="Helvetica,sans-Serif" font-size="11.00">Example code</text>
</g>
<!-- c1&#45;&#45;c1s1 -->
<g id="edge10" class="edge">
<title>c1&#45;&#45;c1s1</title>
<path fill="none" stroke="#94a3b8" d="M736.84,-716.92C729.47,-762.51 710.47,-880.11 703.12,-925.58"/>
</g>
<!-- c2s0 -->
<g id="node13" class="node">
<title>c2s0</title>
<path fill="#e2e8f0" stroke="black" d="M638,-986.2C638,-986.2 567.25,-986.2 567.25,-986.2 561.25,-986.2 555.25,-980.2 555.25,-974.2 555.25,-974.2 555.25,-962.2 555.25,-962.2 555.25,-956.2 561.25,-950.2 567.25,-950.2 567.25,-950.2 638,-950.2 638,-950.2 644,-950.2 650,-956.2 650,-962.2 650,-962.2 650,-974.2 650,-974.2 650,-980.2 644,-986.2 638,-986.2"/>
<text text-anchor="middle" x="602.62" y="-963.37" font-family="Helvetica,sans-Serif" font-size="11.00">Proof of concept</text>
</g>
<!-- c2&#45;&#45;c2s0 -->
<g id="edge12" class="edge">
<title>c2&#45;&#45;c2s0</title>
<path fill="none" stroke="#94a3b8" d="M542.67,-760.98C554.94,-803.41 585.04,-907.42 597.3,-949.79"/>
</g>
<!-- c2s1 -->
<g id="node14" class="node">
<title>c2s1</title>
<path fill="#e2e8f0" stroke="black" d="M535.24,-990.96C535.24,-990.96 455.49,-990.96 455.49,-990.96 449.49,-990.96 443.49,-984.96 443.49,-978.96 443.49,-978.96 443.49,-966.96 443.49,-966.96 443.49,-960.96 449.49,-954.96 455.49,-954.96 455.49,-954.96 535.24,-954.96 535.24,-954.96 541.24,-954.96 547.24,-960.96 547.24,-966.96 547.24,-966.96 547.24,-978.96 547.24,-978.96 547.24,-984.96 541.24,-990.96 535.24,-990.96"/>
<text text-anchor="middle" x="495.37" y="-968.14" font-family="Helvetica,sans-Serif" font-size="11.00">Moonshot projects</text>
</g>
<!-- c2&#45;&#45;c2s1 -->
<g id="edge13" class="edge">
<title>c2&#45;&#45;c2s1</title>
<path fill="none" stroke="#94a3b8" d="M533.96,-760.98C526.09,-804.24 506.52,-911.7 498.69,-954.72"/>
</g>
<!-- c3s0 -->
<g id="node16" class="node">
<title>c3s0</title>
<path fill="#e2e8f0" stroke="black" d="M423.42,-979.87C423.42,-979.87 393.42,-979.87 393.42,-979.87 387.42,-979.87 381.42,-973.87 381.42,-967.87 381.42,-967.87 381.42,-955.87 381.42,-955.87 381.42,-949.87 387.42,-943.87 393.42,-943.87 393.42,-943.87 423.42,-943.87 423.42,-943.87 429.42,-943.87 435.42,-949.87 435.42,-955.87 435.42,-955.87 435.42,-967.87 435.42,-967.87 435.42,-973.87 429.42,-979.87 423.42,-979.87"/>
<text text-anchor="middle" x="408.42" y="-957.04" font-family="Helvetica,sans-Serif" font-size="11.00">Go</text>
</g>
<!-- c3&#45;&#45;c3s0 -->
<g id="edge15" class="edge">
<title>c3&#45;&#45;c3s0</title>
<path fill="none" stroke="#94a3b8" d="M364.42,-729.95C373.2,-776.24 396.13,-897.11 404.92,-943.43"/>
</g>
<!-- c3s1 -->
<g id="node17" class="node">
<title>c3s1</title>
<path fill="#e2e8f0" stroke="black" d="M364.11,-935.85C364.11,-935.85 334.11,-935.85 334.11,-935.85 328.11,-935.85 322.11,-929.85 322.11,-923.85 322.11,-923.85 322.11,-911.85 322.11,-911.85 322.11,-905.85 328.11,-899.85 334.11,-899.85 334.11,-899.85 364.11,-899.85 364.11,-899.85 370.11,-899.85 376.11,-905.85 376.11,-911.85 376.11,-911.85 376.11,-923.85 376.11,-923.85 376.11,-929.85 370.11,-935.85 364.11,-935.85"/>
<text text-anchor="middle" x="349.11" y="-913.02" font-family="Helvetica,sans-Serif" font-size="11.00">Python</text>
</g>
<!-- c3&#45;&#45;c3s1 -->
<g id="edge16" class="edge">
<title>c3&#45;&#45;c3s1</title>
<path fill="none" stroke="#94a3b8" d="M359.88,-729.85C357.63,-769 352.39,-860.47 350.15,-899.58"/>
</g>
<!-- c3s2 -->
<g id="node18" class="node">
<title>c3s2</title>
<path fill="#e2e8f0" stroke="black" d="M300.71,-902.74C300.71,-902.74 233.71,-902.74 233.71,-902.74 227.71,-902.74 221.71,-896.74 221.71,-890.74 221.71,-890.74 221.71,-878.74 221.71,-878.74 221.71,-872.74 227.71,-866.74 233.71,-866.74 233.71,-866.74 300.71,-866.74 300.71,-866.74 306.71,-866.74 312.71,-872.74 312.71,-878.74 312.71,-878.74 312.71,-890.74 312.71,-890.74 312.71,-896.74 306.71,-902.74 300.71,-902.74"/>
<text text-anchor="middle" x="267.21" y="-879.91" font-family="Helvetica,sans-Serif" font-size="11.00">Developer tools</text>
</g>
<!-- c3&#45;&#45;c3s2 -->
<g id="edge17" class="edge">
<title>c3&#45;&#45;c3s2</title>
<path fill="none" stroke="#94a3b8" d="M352,-729.95C337.93,-758.68 309.34,-815.69 281.93,-862.31 281.08,-863.75 280.17,-865.23 279.25,-866.71"/>
</g>
<!-- c4s0 -->
<g id="node20" class="node">
<title>c4s0</title>
<path fill="#e2e8f0" stroke="black" d="M266.23,-858.61C266.23,-858.61 128.73,-858.61 128.73,-858.61 122.73,-858.61 116.73,-852.61 116.73,-846.61 116.73,-846.61 116.73,-834.61 116.73,-834.61 116.73,-828.61 122.73,-822.61 128.73,-822.61 128.73,-822.61 266.23,-822.61 266.23,-822.61 272.23,-822.61 278.23,-828.61 278.23,-834.61 278.23,-834.61 278.23,-846.61 278.23,-846.61 278.23,-852.61 272.23,-858.61 266.23,-858.61"/>
<text text-anchor="middle" x="197.48" y="-835.78" font-family="Helvetica,sans-Serif" font-size="11.00">Package manager repositories</text>
</g>
<!-- c4&#45;&#45;c4s0 -->
<g id="edge19" class="edge">
<title>c4&#45;&#45;c4s0</title>
<path fill="none" stroke="#94a3b8" d="M304.27,-676.13C300.94,-680.54 297.49,-685.29 294.47,-689.84 261.31,-739.9 262.74,-758.56 227.56,-807.23 223.91,-812.29 219.6,-817.45 215.4,-822.14"/>
</g>
<!-- c4s1 -->
<g id="node21" class="node">
<title>c4s1</title>
<path fill="#e2e8f0" stroke="black" d="M211.86,-803.53C211.86,-803.53 76.61,-803.53 76.61,-803.53 70.61,-803.53 64.61,-797.53 64.61,-791.53 64.61,-791.53 64.61,-779.53 64.61,-779.53 64.61,-773.53 70.61,-767.53 76.61,-767.53 76.61,-767.53 211.86,-767.53 211.86,-767.53 217.86,-767.53 223.86,-773.53 223.86,-779.53 223.86,-779.53 223.86,-791.53 223.86,-791.53 223.86,-797.53 217.86,-803.53 211.86,-803.53"/>
<text text-anchor="middle" x="144.24" y="-780.71" font-family="Helvetica,sans-Serif" font-size="11.00">Software distribution channels</text>
</g>
<!-- c4&#45;&#45;c4s1 -->
<g id="edge20" class="edge">
<title>c4&#45;&#45;c4s1</title>
<path fill="none" stroke="#94a3b8" d="M293.9,-676.11C260.79,-700.32 202.74,-742.76 169.5,-767.06"/>
</g>
<!-- c5s0 -->
<g id="node23" class="node">
<title>c5s0</title>
<path fill="#e2e8f0" stroke="black" d="M115.21,-740.27C115.21,-740.27 85.21,-740.27 85.21,-740.27 79.21,-740.27 73.21,-734.27 73.21,-728.27 73.21,-728.27 73.21,-716.27 73.21,-716.27 73.21,-710.27 79.21,-704.27 85.21,-704.27 85.21,-704.27 115.21,-704.27 115.21,-704.27 121.21,-704.27 127.21,-710.27 127.21,-716.27 127.21,-716.27 127.21,-728.27 127.21,-728.27 127.21,-734.27 121.21,-740.27 115.21,-740.27"/>
<text text-anchor="middle" x="100.21" y="-717.44" font-family="Helvetica,sans-Serif" font-size="11.00">AI skills</text>
</g>
<!-- c5&#45;&#45;c5s0 -->
<g id="edge22" class="edge">
<title>c5&#45;&#45;c5s0</title>
<path fill="none" stroke="#94a3b8" d="M266.2,-612.4C229.47,-636.71 164.48,-679.73 127.67,-704.1"/>
</g>
<!-- c5s1 -->
<g id="node24" class="node">
<title>c5s1</title>
<path fill="#e2e8f0" stroke="black" d="M126.25,-670.18C126.25,-670.18 12,-670.18 12,-670.18 6,-670.18 0,-664.18 0,-658.18 0,-658.18 0,-646.18 0,-646.18 0,-640.18 6,-634.18 12,-634.18 12,-634.18 126.25,-634.18 126.25,-634.18 132.25,-634.18 138.25,-640.18 138.25,-646.18 138.25,-646.18 138.25,-658.18 138.25,-658.18 138.25,-664.18 132.25,-670.18 126.25,-670.18"/>
<text text-anchor="middle" x="69.13" y="-647.35" font-family="Helvetica,sans-Serif" font-size="11.00">AI automation and tooling</text>
</g>
<!-- c5&#45;&#45;c5s1 -->
<g id="edge23" class="edge">
<title>c5&#45;&#45;c5s1</title>
<path fill="none" stroke="#94a3b8" d="M266.41,-601.32C234.95,-609.43 181.8,-623.13 138.6,-634.27"/>
</g>
<!-- c6s0 -->
<g id="node26" class="node">
<title>c6s0</title>
<path fill="#e2e8f0" stroke="black" d="M100.74,-595.67C100.74,-595.67 12.74,-595.67 12.74,-595.67 6.74,-595.67 0.74,-589.67 0.74,-583.67 0.74,-583.67 0.74,-571.67 0.74,-571.67 0.74,-565.67 6.74,-559.67 12.74,-559.67 12.74,-559.67 100.74,-559.67 100.74,-559.67 106.74,-559.67 112.74,-565.67 112.74,-571.67 112.74,-571.67 112.74,-583.67 112.74,-583.67 112.74,-589.67 106.74,-595.67 100.74,-595.67"/>
<text text-anchor="middle" x="56.74" y="-572.84" font-family="Helvetica,sans-Serif" font-size="11.00">Command&#45;line tools</text>
</g>
<!-- c6&#45;&#45;c6s0 -->
<g id="edge25" class="edge">
<title>c6&#45;&#45;c6s0</title>
<path fill="none" stroke="#94a3b8" d="M263.76,-527.07C226.93,-536.07 160.52,-552.3 112.83,-563.96"/>
</g>
<!-- c6s1 -->
<g id="node27" class="node">
<title>c6s1</title>
<path fill="#e2e8f0" stroke="black" d="M65.04,-518.63C65.04,-518.63 35.04,-518.63 35.04,-518.63 29.04,-518.63 23.04,-512.63 23.04,-506.63 23.04,-506.63 23.04,-494.63 23.04,-494.63 23.04,-488.63 29.04,-482.63 35.04,-482.63 35.04,-482.63 65.04,-482.63 65.04,-482.63 71.04,-482.63 77.04,-488.63 77.04,-494.63 77.04,-494.63 77.04,-506.63 77.04,-506.63 77.04,-512.63 71.04,-518.63 65.04,-518.63"/>
<text text-anchor="middle" x="50.04" y="-495.81" font-family="Helvetica,sans-Serif" font-size="11.00">Utilities</text>
</g>
<!-- c6&#45;&#45;c6s1 -->
<g id="edge26" class="edge">
<title>c6&#45;&#45;c6s1</title>
<path fill="none" stroke="#94a3b8" d="M263.92,-518.16C217.62,-514.37 123.98,-506.69 77.5,-502.88"/>
</g>
<!-- c7s0 -->
<g id="node29" class="node">
<title>c7s0</title>
<path fill="#e2e8f0" stroke="black" d="M91.03,-442.44C91.03,-442.44 18.03,-442.44 18.03,-442.44 12.03,-442.44 6.03,-436.44 6.03,-430.44 6.03,-430.44 6.03,-418.44 6.03,-418.44 6.03,-412.44 12.03,-406.44 18.03,-406.44 18.03,-406.44 91.03,-406.44 91.03,-406.44 97.03,-406.44 103.03,-412.44 103.03,-418.44 103.03,-418.44 103.03,-430.44 103.03,-430.44 103.03,-436.44 97.03,-442.44 91.03,-442.44"/>
<text text-anchor="middle" x="54.53" y="-419.61" font-family="Helvetica,sans-Serif" font-size="11.00">Web applications</text>
</g>
<!-- c7&#45;&#45;c7s0 -->
<g id="edge28" class="edge">
<title>c7&#45;&#45;c7s0</title>
<path fill="none" stroke="#94a3b8" d="M245.66,-440.94C206.87,-437.59 145.88,-432.32 103.26,-428.64"/>
</g>
<!-- c7s1 -->
<g id="node30" class="node">
<title>c7s1</title>
<path fill="#e2e8f0" stroke="black" d="M120.88,-368.33C120.88,-368.33 19.38,-368.33 19.38,-368.33 13.38,-368.33 7.38,-362.33 7.38,-356.33 7.38,-356.33 7.38,-344.33 7.38,-344.33 7.38,-338.33 13.38,-332.33 19.38,-332.33 19.38,-332.33 120.88,-332.33 120.88,-332.33 126.88,-332.33 132.88,-338.33 132.88,-344.33 132.88,-344.33 132.88,-356.33 132.88,-356.33 132.88,-362.33 126.88,-368.33 120.88,-368.33"/>
<text text-anchor="middle" x="70.13" y="-345.51" font-family="Helvetica,sans-Serif" font-size="11.00">Desktop and GUI tools</text>
</g>
<!-- c7&#45;&#45;c7s1 -->
<g id="edge29" class="edge">
<title>c7&#45;&#45;c7s1</title>
<path fill="none" stroke="#94a3b8" d="M245.8,-427.81C208.42,-411.33 150.82,-385.92 111.86,-368.74"/>
</g>
<!-- c8s0 -->
<g id="node32" class="node">
<title>c8s0</title>
<path fill="#e2e8f0" stroke="black" d="M117.37,-298.98C117.37,-298.98 63.87,-298.98 63.87,-298.98 57.87,-298.98 51.87,-292.98 51.87,-286.98 51.87,-286.98 51.87,-274.98 51.87,-274.98 51.87,-268.98 57.87,-262.98 63.87,-262.98 63.87,-262.98 117.37,-262.98 117.37,-262.98 123.37,-262.98 129.37,-268.98 129.37,-274.98 129.37,-274.98 129.37,-286.98 129.37,-286.98 129.37,-292.98 123.37,-298.98 117.37,-298.98"/>
<text text-anchor="middle" x="90.62" y="-276.15" font-family="Helvetica,sans-Serif" font-size="11.00">Raspberry Pi</text>
</g>
<!-- c8&#45;&#45;c8s0 -->
<g id="edge31" class="edge">
<title>c8&#45;&#45;c8s0</title>
<path fill="none" stroke="#94a3b8" d="M272.5,-361.27C234.59,-344.53 170.92,-316.43 129.85,-298.3"/>
</g>
<!-- c8s1 -->
<g id="node33" class="node">
<title>c8s1</title>
<path fill="#e2e8f0" stroke="black" d="M171.72,-235.91C171.72,-235.91 62.72,-235.91 62.72,-235.91 56.72,-235.91 50.72,-229.91 50.72,-223.91 50.72,-223.91 50.72,-211.91 50.72,-211.91 50.72,-205.91 56.72,-199.91 62.72,-199.91 62.72,-199.91 171.72,-199.91 171.72,-199.91 177.72,-199.91 183.72,-205.91 183.72,-211.91 183.72,-211.91 183.72,-223.91 183.72,-223.91 183.72,-229.91 177.72,-235.91 171.72,-235.91"/>
<text text-anchor="middle" x="117.22" y="-213.08" font-family="Helvetica,sans-Serif" font-size="11.00">Discrete I/O and devices</text>
</g>
<!-- c8&#45;&#45;c8s1 -->
<g id="edge32" class="edge">
<title>c8&#45;&#45;c8s1</title>
<path fill="none" stroke="#94a3b8" d="M282.19,-356.82C246.3,-326.6 175.15,-266.68 139.16,-236.38"/>
</g>
<!-- c9s0 -->
<g id="node35" class="node">
<title>c9s0</title>
<path fill="#e2e8f0" stroke="black" d="M242.55,-180.29C242.55,-180.29 54.05,-180.29 54.05,-180.29 48.05,-180.29 42.05,-174.29 42.05,-168.29 42.05,-168.29 42.05,-156.29 42.05,-156.29 42.05,-150.29 48.05,-144.29 54.05,-144.29 54.05,-144.29 242.55,-144.29 242.55,-144.29 248.55,-144.29 254.55,-150.29 254.55,-156.29 254.55,-156.29 254.55,-168.29 254.55,-168.29 254.55,-174.29 248.55,-180.29 242.55,-180.29"/>
<text text-anchor="middle" x="148.3" y="-157.46" font-family="Helvetica,sans-Serif" font-size="11.00">Personal knowledge management (PKM)</text>
</g>
<!-- c9&#45;&#45;c9s0 -->
<g id="edge34" class="edge">
<title>c9&#45;&#45;c9s0</title>
<path fill="none" stroke="#94a3b8" d="M344.21,-292C301.2,-263.53 219.19,-209.23 176.19,-180.75"/>
</g>
<!-- c9s1 -->
<g id="node36" class="node">
<title>c9s1</title>
<path fill="#e2e8f0" stroke="black" d="M261.89,-134.15C261.89,-134.15 88.39,-134.15 88.39,-134.15 82.39,-134.15 76.39,-128.15 76.39,-122.15 76.39,-122.15 76.39,-110.15 76.39,-110.15 76.39,-104.15 82.39,-98.15 88.39,-98.15 88.39,-98.15 261.89,-98.15 261.89,-98.15 267.89,-98.15 273.89,-104.15 273.89,-110.15 273.89,-110.15 273.89,-122.15 273.89,-122.15 273.89,-128.15 267.89,-134.15 261.89,-134.15"/>
<text text-anchor="middle" x="175.14" y="-111.32" font-family="Helvetica,sans-Serif" font-size="11.00">Personal content management (PCM)</text>
</g>
<!-- c9&#45;&#45;c9s1 -->
<g id="edge35" class="edge">
<title>c9&#45;&#45;c9s1</title>
<path fill="none" stroke="#94a3b8" d="M364.84,-292.03C350.15,-257.1 313.49,-181.13 258.25,-140.59 255.22,-138.36 251.99,-136.34 248.62,-134.5"/>
</g>
<!-- c9s2 -->
<g id="node37" class="node">
<title>c9s2</title>
<path fill="#e2e8f0" stroke="black" d="M280.7,-86.49C280.7,-86.49 190.45,-86.49 190.45,-86.49 184.45,-86.49 178.45,-80.49 178.45,-74.49 178.45,-74.49 178.45,-62.49 178.45,-62.49 178.45,-56.49 184.45,-50.49 190.45,-50.49 190.45,-50.49 280.7,-50.49 280.7,-50.49 286.7,-50.49 292.7,-56.49 292.7,-62.49 292.7,-62.49 292.7,-74.49 292.7,-74.49 292.7,-80.49 286.7,-86.49 280.7,-86.49"/>
<text text-anchor="middle" x="235.57" y="-63.67" font-family="Helvetica,sans-Serif" font-size="11.00">Documentation tools</text>
</g>
<!-- c9&#45;&#45;c9s2 -->
<g id="edge36" class="edge">
<title>c9&#45;&#45;c9s2</title>
<path fill="none" stroke="#94a3b8" d="M368.07,-292.26C358.48,-252.37 330.99,-155.96 277.59,-94.45 275.22,-91.73 272.51,-89.2 269.61,-86.88"/>
</g>
<!-- c10s0 -->
<g id="node39" class="node">
<title>c10s0</title>
<path fill="#e2e8f0" stroke="black" d="M380.54,-51.2C380.54,-51.2 312.79,-51.2 312.79,-51.2 306.79,-51.2 300.79,-45.2 300.79,-39.2 300.79,-39.2 300.79,-27.2 300.79,-27.2 300.79,-21.2 306.79,-15.2 312.79,-15.2 312.79,-15.2 380.54,-15.2 380.54,-15.2 386.54,-15.2 392.54,-21.2 392.54,-27.2 392.54,-27.2 392.54,-39.2 392.54,-39.2 392.54,-45.2 386.54,-51.2 380.54,-51.2"/>
<text text-anchor="middle" x="346.66" y="-28.38" font-family="Helvetica,sans-Serif" font-size="11.00">Book publishing</text>
</g>
<!-- c10&#45;&#45;c10s0 -->
<g id="edge38" class="edge">
<title>c10&#45;&#45;c10s0</title>
<path fill="none" stroke="#94a3b8" d="M493.72,-248.12C463.89,-204.52 388.9,-94.93 359.13,-51.42"/>
</g>
<!-- c10s1 -->
<g id="node40" class="node">
<title>c10s1</title>
<path fill="#e2e8f0" stroke="black" d="M502.86,-36C502.86,-36 412.61,-36 412.61,-36 406.61,-36 400.61,-30 400.61,-24 400.61,-24 400.61,-12 400.61,-12 400.61,-6 406.61,0 412.61,0 412.61,0 502.86,0 502.86,0 508.86,0 514.86,-6 514.86,-12 514.86,-12 514.86,-24 514.86,-24 514.86,-30 508.86,-36 502.86,-36"/>
<text text-anchor="middle" x="457.73" y="-13.18" font-family="Helvetica,sans-Serif" font-size="11.00">Markdown authoring</text>
</g>
<!-- c10&#45;&#45;c10s1 -->
<g id="edge39" class="edge">
<title>c10&#45;&#45;c10s1</title>
<path fill="none" stroke="#94a3b8" d="M502.67,-248.15C493.7,-202.21 470.28,-82.26 461.3,-36.29"/>
</g>
<!-- c11s0 -->
<g id="node42" class="node">
<title>c11s0</title>
<path fill="#e2e8f0" stroke="black" d="M661.96,-41.1C661.96,-41.1 534.96,-41.1 534.96,-41.1 528.96,-41.1 522.96,-35.1 522.96,-29.1 522.96,-29.1 522.96,-17.1 522.96,-17.1 522.96,-11.1 528.96,-5.1 534.96,-5.1 534.96,-5.1 661.96,-5.1 661.96,-5.1 667.96,-5.1 673.96,-11.1 673.96,-17.1 673.96,-17.1 673.96,-29.1 673.96,-29.1 673.96,-35.1 667.96,-41.1 661.96,-41.1"/>
<text text-anchor="middle" x="598.46" y="-18.27" font-family="Helvetica,sans-Serif" font-size="11.00">Amateur radio programming</text>
</g>
<!-- c11&#45;&#45;c11s0 -->
<g id="edge41" class="edge">
<title>c11&#45;&#45;c11s0</title>
<path fill="none" stroke="#94a3b8" d="M626.99,-253.37C621.3,-207.4 606.43,-87.39 600.73,-41.4"/>
</g>
<!-- c11s1 -->
<g id="node43" class="node">
<title>c11s1</title>
<path fill="#e2e8f0" stroke="black" d="M831.56,-75.83C831.56,-75.83 694.06,-75.83 694.06,-75.83 688.06,-75.83 682.06,-69.83 682.06,-63.83 682.06,-63.83 682.06,-51.83 682.06,-51.83 682.06,-45.83 688.06,-39.83 694.06,-39.83 694.06,-39.83 831.56,-39.83 831.56,-39.83 837.56,-39.83 843.56,-45.83 843.56,-51.83 843.56,-51.83 843.56,-63.83 843.56,-63.83 843.56,-69.83 837.56,-75.83 831.56,-75.83"/>
<text text-anchor="middle" x="762.81" y="-53.01" font-family="Helvetica,sans-Serif" font-size="11.00">Radio archives and references</text>
</g>
<!-- c11&#45;&#45;c11s1 -->
<g id="edge42" class="edge">
<title>c11&#45;&#45;c11s1</title>
<path fill="none" stroke="#94a3b8" d="M640.65,-253.41C665.81,-213.12 725.94,-116.85 751.26,-76.32"/>
</g>
<!-- c12s0 -->
<g id="node45" class="node">
<title>c12s0</title>
<path fill="#e2e8f0" stroke="black" d="M912.77,-119.88C912.77,-119.88 834.52,-119.88 834.52,-119.88 828.52,-119.88 822.52,-113.88 822.52,-107.88 822.52,-107.88 822.52,-95.88 822.52,-95.88 822.52,-89.88 828.52,-83.88 834.52,-83.88 834.52,-83.88 912.77,-83.88 912.77,-83.88 918.77,-83.88 924.77,-89.88 924.77,-95.88 924.77,-95.88 924.77,-107.88 924.77,-107.88 924.77,-113.88 918.77,-119.88 912.77,-119.88"/>
<text text-anchor="middle" x="873.64" y="-97.05" font-family="Helvetica,sans-Serif" font-size="11.00">Weather reporting</text>
</g>
<!-- c12&#45;&#45;c12s0 -->
<g id="edge44" class="edge">
<title>c12&#45;&#45;c12s0</title>
<path fill="none" stroke="#94a3b8" d="M744.24,-298.34C770.96,-257.77 834.91,-160.68 861.61,-120.14"/>
</g>
<!-- c12s1 -->
<g id="node46" class="node">
<title>c12s1</title>
<path fill="#e2e8f0" stroke="black" d="M1001.35,-163.88C1001.35,-163.88 892.35,-163.88 892.35,-163.88 886.35,-163.88 880.35,-157.88 880.35,-151.88 880.35,-151.88 880.35,-139.88 880.35,-139.88 880.35,-133.88 886.35,-127.88 892.35,-127.88 892.35,-127.88 1001.35,-127.88 1001.35,-127.88 1007.35,-127.88 1013.35,-133.88 1013.35,-139.88 1013.35,-139.88 1013.35,-151.88 1013.35,-151.88 1013.35,-157.88 1007.35,-163.88 1001.35,-163.88"/>
<text text-anchor="middle" x="946.85" y="-141.06" font-family="Helvetica,sans-Serif" font-size="11.00">Weather instrumentation</text>
</g>
<!-- c12&#45;&#45;c12s1 -->
<g id="edge45" class="edge">
<title>c12&#45;&#45;c12s1</title>
<path fill="none" stroke="#94a3b8" d="M755.15,-298.38C796.36,-265.6 882.39,-197.16 923.72,-164.29"/>
</g>
<!-- c12s2 -->
<g id="node47" class="node">
<title>c12s2</title>
<path fill="#e2e8f0" stroke="black" d="M1010.5,-210.87C1010.5,-210.87 931.5,-210.87 931.5,-210.87 925.5,-210.87 919.5,-204.87 919.5,-198.87 919.5,-198.87 919.5,-186.87 919.5,-186.87 919.5,-180.87 925.5,-174.87 931.5,-174.87 931.5,-174.87 1010.5,-174.87 1010.5,-174.87 1016.5,-174.87 1022.5,-180.87 1022.5,-186.87 1022.5,-186.87 1022.5,-198.87 1022.5,-198.87 1022.5,-204.87 1016.5,-210.87 1010.5,-210.87"/>
<text text-anchor="middle" x="971" y="-188.04" font-family="Helvetica,sans-Serif" font-size="11.00">Weather decoding</text>
</g>
<!-- c12&#45;&#45;c12s2 -->
<g id="edge46" class="edge">
<title>c12&#45;&#45;c12s2</title>
<path fill="none" stroke="#94a3b8" d="M760.51,-301.97C804.13,-279.36 887.65,-236.07 935.32,-211.36"/>
</g>
<!-- c13s0 -->
<g id="node49" class="node">
<title>c13s0</title>
<path fill="#e2e8f0" stroke="black" d="M1052.54,-267.85C1052.54,-267.85 938.29,-267.85 938.29,-267.85 932.29,-267.85 926.29,-261.85 926.29,-255.85 926.29,-255.85 926.29,-243.85 926.29,-243.85 926.29,-237.85 932.29,-231.85 938.29,-231.85 938.29,-231.85 1052.54,-231.85 1052.54,-231.85 1058.54,-231.85 1064.54,-237.85 1064.54,-243.85 1064.54,-243.85 1064.54,-255.85 1064.54,-255.85 1064.54,-261.85 1058.54,-267.85 1052.54,-267.85"/>
<text text-anchor="middle" x="995.42" y="-245.03" font-family="Helvetica,sans-Serif" font-size="11.00">Issue and project tracking</text>
</g>
<!-- c13&#45;&#45;c13s0 -->
<g id="edge48" class="edge">
<title>c13&#45;&#45;c13s0</title>
<path fill="none" stroke="#94a3b8" d="M808.88,-371.21C849.89,-344.53 925.81,-295.14 967.02,-268.33"/>
</g>
<!-- c13s1 -->
<g id="node50" class="node">
<title>c13s1</title>
<path fill="#e2e8f0" stroke="black" d="M1048.91,-332.23C1048.91,-332.23 978.16,-332.23 978.16,-332.23 972.16,-332.23 966.16,-326.23 966.16,-320.23 966.16,-320.23 966.16,-308.23 966.16,-308.23 966.16,-302.23 972.16,-296.23 978.16,-296.23 978.16,-296.23 1048.91,-296.23 1048.91,-296.23 1054.91,-296.23 1060.91,-302.23 1060.91,-308.23 1060.91,-308.23 1060.91,-320.23 1060.91,-320.23 1060.91,-326.23 1054.91,-332.23 1048.91,-332.23"/>
<text text-anchor="middle" x="1013.54" y="-309.41" font-family="Helvetica,sans-Serif" font-size="11.00">Workflow tooling</text>
</g>
<!-- c13&#45;&#45;c13s1 -->
<g id="edge49" class="edge">
<title>c13&#45;&#45;c13s1</title>
<path fill="none" stroke="#94a3b8" d="M838.05,-370.96C877.35,-358.26 928.9,-341.6 965.95,-329.62"/>
</g>
<!-- c14s0 -->
<g id="node52" class="node">
<title>c14s0</title>
<path fill="#e2e8f0" stroke="black" d="M1091.11,-403.25C1091.11,-403.25 961.86,-403.25 961.86,-403.25 955.86,-403.25 949.86,-397.25 949.86,-391.25 949.86,-391.25 949.86,-379.25 949.86,-379.25 949.86,-373.25 955.86,-367.25 961.86,-367.25 961.86,-367.25 1091.11,-367.25 1091.11,-367.25 1097.11,-367.25 1103.11,-373.25 1103.11,-379.25 1103.11,-379.25 1103.11,-391.25 1103.11,-391.25 1103.11,-397.25 1097.11,-403.25 1091.11,-403.25"/>
<text text-anchor="middle" x="1026.48" y="-380.43" font-family="Helvetica,sans-Serif" font-size="11.00">Profile and meta repositories</text>
</g>
<!-- c14&#45;&#45;c14s0 -->
<g id="edge51" class="edge">
<title>c14&#45;&#45;c14s0</title>
<path fill="none" stroke="#94a3b8" d="M826.43,-452.53C862.24,-440.49 925.73,-419.14 971.59,-403.71"/>
</g>
<!-- c14s1 -->
<g id="node53" class="node">
<title>c14s1</title>
<path fill="#e2e8f0" stroke="black" d="M1083.73,-478.62C1083.73,-478.62 981.48,-478.62 981.48,-478.62 975.48,-478.62 969.48,-472.62 969.48,-466.62 969.48,-466.62 969.48,-454.62 969.48,-454.62 969.48,-448.62 975.48,-442.62 981.48,-442.62 981.48,-442.62 1083.73,-442.62 1083.73,-442.62 1089.73,-442.62 1095.73,-448.62 1095.73,-454.62 1095.73,-454.62 1095.73,-466.62 1095.73,-466.62 1095.73,-472.62 1089.73,-478.62 1083.73,-478.62"/>
<text text-anchor="middle" x="1032.6" y="-455.8" font-family="Helvetica,sans-Serif" font-size="11.00">Uncategorized projects</text>
</g>
<!-- c14&#45;&#45;c14s1 -->
<g id="edge52" class="edge">
<title>c14&#45;&#45;c14s1</title>
<path fill="none" stroke="#94a3b8" d="M826.24,-461.62C861.03,-461.46 922.29,-461.16 969.06,-460.93"/>
</g>
</g>
</svg>
