<?xml version="1.0" encoding="UTF-8" standalone="no"?>
<!DOCTYPE svg PUBLIC "-//W3C//DTD SVG 1.1//EN"
 "http://www.w3.org/Graphics/SVG/1.1/DTD/svg11.dtd">
<!-- Generated by graphviz version 12.2.1 (20241206.2353)
 -->
<!-- Title: knowledge_map Pages: 1 -->
<svg width="1113pt" height="979pt"
 viewBox="0.00 0.00 1112.53 979.40" xmlns="http://www.w3.org/2000/svg" xmlns:xlink="http://www.w3.org/1999/xlink">
<g id="graph0" class="graph" transform="scale(1 1) rotate(0) translate(4 975.4)">
<title>knowledge_map</title>
<!-- root -->
<g id="node1" class="node">
<title>root</title>
<ellipse fill="#222222" stroke="black" cx="544.96" cy="-491.19" rx="86.15" ry="18"/>
<text text-anchor="middle" x="544.96" y="-484.24" font-family="Helvetica,sans-Serif" font-size="16.00" fill="white">Kevin P. Inscoe</text>
</g>
<!-- c0 -->
<g id="node2" class="node">
<title>c0</title>
<path fill="#2b6cb0" stroke="black" d="M931.22,-623.34C931.22,-623.34 676.72,-623.34 676.72,-623.34 670.72,-623.34 664.72,-617.34 664.72,-611.34 664.72,-611.34 664.72,-599.34 664.72,-599.34 664.72,-593.34 670.72,-587.34 676.72,-587.34 676.72,-587.34 931.22,-587.34 931.22,-587.34 937.22,-587.34 943.22,-593.34 943.22,-599.34 943.22,-599.34 943.22,-611.34 943.22,-611.34 943.22,-617.34 937.22,-623.34 931.22,-623.34"/>
<text text-anchor="middle" x="803.97" y="-600.52" font-family="Helvetica,sans-Serif" font-size="11.00" fill="white">Compute Infrastructure and Site Reliability Engineering</text>
</g>
<!-- root&#45;&#45;c0 -->
<g id="edge1" class="edge">
<title>root&#45;&#45;c0</title>
<path fill="none" stroke="#94a3b8" d="M582.63,-507.79C630.47,-528.88 712.77,-565.15 762.41,-587.02"/>
</g>
<!-- c1 -->
<g id="node9" class="node">
<title>c1</title>
<path fill="#2b6cb0" stroke="black" d="M799.51,-721.01C799.51,-721.01 641.76,-721.01 641.76,-721.01 635.76,-721.01 629.76,-715.01 629.76,-709.01 629.76,-709.01 629.76,-697.01 629.76,-697.01 629.76,-691.01 635.76,-685.01 641.76,-685.01 641.76,-685.01 799.51,-685.01 799.51,-685.01 805.51,-685.01 811.51,-691.01 811.51,-697.01 811.51,-697.01 811.51,-709.01 811.51,-709.01 811.51,-715.01 805.51,-721.01 799.51,-721.01"/>
<text text-anchor="middle" x="720.63" y="-698.18" font-family="Helvetica,sans-Serif" font-size="11.00" fill="white">Playbooks and Skill Demonstration</text>
</g>
<!-- root&#45;&#45;c1 -->
<g id="edge8" class="edge">
<title>root&#45;&#45;c1</title>
<path fill="none" stroke="#94a3b8" d="M559.94,-509.25C593.05,-549.17 672.14,-644.54 705.44,-684.69"/>
</g>
<!-- c2 -->
<g id="node12" class="node">
<title>c2</title>
<path fill="#2b6cb0" stroke="black" d="M609.57,-748.96C609.57,-748.96 422.57,-748.96 422.57,-748.96 416.57,-748.96 410.57,-742.96 410.57,-736.96 410.57,-736.96 410.57,-724.96 410.57,-724.96 410.57,-718.96 416.57,-712.96 422.57,-712.96 422.57,-712.96 609.57,-712.96 609.57,-712.96 615.57,-712.96 621.57,-718.96 621.57,-724.96 621.57,-724.96 621.57,-736.96 621.57,-736.96 621.57,-742.96 615.57,-748.96 609.57,-748.96"/>
<text text-anchor="middle" x="516.07" y="-726.14" font-family="Helvetica,sans-Serif" font-size="11.00" fill="white">Proof of Concept and Moonshot Projects</text>
</g>
<!-- root&#45;&#45;c2 -->
<g id="edge11" class="edge">
<title>root&#45;&#45;c2</title>
<path fill="none" stroke="#94a3b8" d="M542.74,-509.61C537.37,-554.24 523.68,-667.79 518.3,-712.48"/>
</g>
<!-- c3 -->
<g id="node15" class="node">
<title>c3</title>
<path fill="#2b6cb0" stroke="black" d="M408.43,-704.9C408.43,-704.9 306.93,-704.9 306.93,-704.9 300.93,-704.9 294.93,-698.9 294.93,-692.9 294.93,-692.9 294.93,-680.9 294.93,-680.9 294.93,-674.9 300.93,-668.9 306.93,-668.9 306.93,-668.9 408.43,-668.9 408.43,-668.9 414.43,-668.9 420.43,-674.9 420.43,-680.9 420.43,-680.9 420.43,-692.9 420.43,-692.9 420.43,-698.9 414.43,-704.9 408.43,-704.9"/>
<text text-anchor="middle" x="357.68" y="-682.07" font-family="Helvetica,sans-Serif" font-size="11.00" fill="white">Software Development</text>
</g>
<!-- root&#45;&#45;c3 -->
<g id="edge14" class="edge">
<title>root&#45;&#45;c3</title>
<path fill="none" stroke="#94a3b8" d="M527.68,-509.25C492.09,-546.44 410.97,-631.2 375.19,-668.6"/>
</g>
<!-- c4 -->
<g id="node19" class="node">
<title>c4</title>
<path fill="#2b6cb0" stroke="black" d="M327.24,-641.49C327.24,-641.49 297.24,-641.49 297.24,-641.49 291.24,-641.49 285.24,-635.49 285.24,-629.49 285.24,-629.49 285.24,-617.49 285.24,-617.49 285.24,-611.49 291.24,-605.49 297.24,-605.49 297.24,-605.49 327.24,-605.49 327.24,-605.49 333.24,-605.49 339.24,-611.49 339.24,-617.49 339.24,-617.49 339.24,-629.49 339.24,-629.49 339.24,-635.49 333.24,-641.49 327.24,-641.49"/>
<text text-anchor="middle" x="312.24" y="-618.67" font-family="Helvetica,sans-Serif" font-size="11.00" fill="white">AI</text>
</g>
<!-- root&#45;&#45;c4 -->
<g id="edge18" class="edge">
<title>root&#45;&#45;c4</title>
<path fill="none" stroke="#94a3b8" d="M514.54,-508.49C468.83,-534.47 383.15,-583.18 339.42,-608.04"/>
</g>
<!-- c5 -->
<g id="node22" class="node">
<title>c5</title>
<path fill="#2b6cb0" stroke="black" d="M309.27,-569.01C309.27,-569.01 279.27,-569.01 279.27,-569.01 273.27,-569.01 267.27,-563.01 267.27,-557.01 267.27,-557.01 267.27,-545.01 267.27,-545.01 267.27,-539.01 273.27,-533.01 279.27,-533.01 279.27,-533.01 309.27,-533.01 309.27,-533.01 315.27,-533.01 321.27,-539.01 321.27,-545.01 321.27,-545.01 321.27,-557.01 321.27,-557.01 321.27,-563.01 315.27,-569.01 309.27,-569.01"/>
<text text-anchor="middle" x="294.27" y="-546.19" font-family="Helvetica,sans-Serif" font-size="11.00" fill="white">Tools</text>
</g>
<!-- root&#45;&#45;c5 -->
<g id="edge21" class="edge">
<title>root&#45;&#45;c5</title>
<path fill="none" stroke="#94a3b8" d="M487.45,-504.92C435.41,-517.33 361.05,-535.08 321.48,-544.52"/>
</g>
<!-- c6 -->
<g id="node25" class="node">
<title>c6</title>
<path fill="#2b6cb0" stroke="black" d="M316.8,-488.88C316.8,-488.88 267.05,-488.88 267.05,-488.88 261.05,-488.88 255.05,-482.88 255.05,-476.88 255.05,-476.88 255.05,-464.88 255.05,-464.88 255.05,-458.88 261.05,-452.88 267.05,-452.88 267.05,-452.88 316.8,-452.88 316.8,-452.88 322.8,-452.88 328.8,-458.88 328.8,-464.88 328.8,-464.88 328.8,-476.88 328.8,-476.88 328.8,-482.88 322.8,-488.88 316.8,-488.88"/>
<text text-anchor="middle" x="291.92" y="-466.06" font-family="Helvetica,sans-Serif" font-size="11.00" fill="white">Applications</text>
</g>
<!-- root&#45;&#45;c6 -->
<g id="edge24" class="edge">
<title>root&#45;&#45;c6</title>
<path fill="none" stroke="#94a3b8" d="M463.86,-484.68C418.61,-481.05 364.43,-476.7 329.15,-473.87"/>
</g>
<!-- c7 -->
<g id="node28" class="node">
<title>c7</title>
<path fill="#2b6cb0" stroke="black" d="M322.69,-411.36C322.69,-411.36 284.19,-411.36 284.19,-411.36 278.19,-411.36 272.19,-405.36 272.19,-399.36 272.19,-399.36 272.19,-387.36 272.19,-387.36 272.19,-381.36 278.19,-375.36 284.19,-375.36 284.19,-375.36 322.69,-375.36 322.69,-375.36 328.69,-375.36 334.69,-381.36 334.69,-387.36 334.69,-387.36 334.69,-399.36 334.69,-399.36 334.69,-405.36 328.69,-411.36 322.69,-411.36"/>
<text text-anchor="middle" x="303.44" y="-388.54" font-family="Helvetica,sans-Serif" font-size="11.00" fill="white">Hardware</text>
</g>
<!-- root&#45;&#45;c7 -->
<g id="edge27" class="edge">
<title>root&#45;&#45;c7</title>
<path fill="none" stroke="#94a3b8" d="M504.81,-474.93C457.06,-455.59 378.36,-423.71 334.83,-406.08"/>
</g>
<!-- c8 -->
<g id="node31" class="node">
<title>c8</title>
<path fill="#2b6cb0" stroke="black" d="M404.28,-331.79C404.28,-331.79 292.28,-331.79 292.28,-331.79 286.28,-331.79 280.28,-325.79 280.28,-319.79 280.28,-319.79 280.28,-307.79 280.28,-307.79 280.28,-301.79 286.28,-295.79 292.28,-295.79 292.28,-295.79 404.28,-295.79 404.28,-295.79 410.28,-295.79 416.28,-301.79 416.28,-307.79 416.28,-307.79 416.28,-319.79 416.28,-319.79 416.28,-325.79 410.28,-331.79 404.28,-331.79"/>
<text text-anchor="middle" x="348.28" y="-308.97" font-family="Helvetica,sans-Serif" font-size="11.00" fill="white">Knowledge Management</text>
</g>
<!-- root&#45;&#45;c8 -->
<g id="edge30" class="edge">
<title>root&#45;&#45;c8</title>
<path fill="none" stroke="#94a3b8" d="M525.02,-473.21C487.42,-439.29 406.43,-366.25 368.57,-332.09"/>
</g>
<!-- c9 -->
<g id="node35" class="node">
<title>c9</title>
<path fill="#2b6cb0" stroke="black" d="M525.04,-285.09C525.04,-285.09 409.29,-285.09 409.29,-285.09 403.29,-285.09 397.29,-279.09 397.29,-273.09 397.29,-273.09 397.29,-261.09 397.29,-261.09 397.29,-255.09 403.29,-249.09 409.29,-249.09 409.29,-249.09 525.04,-249.09 525.04,-249.09 531.04,-249.09 537.04,-255.09 537.04,-261.09 537.04,-261.09 537.04,-273.09 537.04,-273.09 537.04,-279.09 531.04,-285.09 525.04,-285.09"/>
<text text-anchor="middle" x="467.17" y="-262.26" font-family="Helvetica,sans-Serif" font-size="11.00" fill="white">Publishing and Markdown</text>
</g>
<!-- root&#45;&#45;c9 -->
<g id="edge34" class="edge">
<title>root&#45;&#45;c9</title>
<path fill="none" stroke="#94a3b8" d="M538.6,-472.85C523.97,-430.72 488.12,-327.44 473.52,-285.37"/>
</g>
<!-- c10 -->
<g id="node38" class="node">
<title>c10</title>
<path fill="#2b6cb0" stroke="black" d="M636.93,-280.9C636.93,-280.9 572.93,-280.9 572.93,-280.9 566.93,-280.9 560.93,-274.9 560.93,-268.9 560.93,-268.9 560.93,-256.9 560.93,-256.9 560.93,-250.9 566.93,-244.9 572.93,-244.9 572.93,-244.9 636.93,-244.9 636.93,-244.9 642.93,-244.9 648.93,-250.9 648.93,-256.9 648.93,-256.9 648.93,-268.9 648.93,-268.9 648.93,-274.9 642.93,-280.9 636.93,-280.9"/>
<text text-anchor="middle" x="604.93" y="-258.08" font-family="Helvetica,sans-Serif" font-size="11.00" fill="white">Amateur Radio</text>
</g>
<!-- root&#45;&#45;c10 -->
<g id="edge37" class="edge">
<title>root&#45;&#45;c10</title>
<path fill="none" stroke="#94a3b8" d="M549.77,-472.9C561,-430.15 588.85,-324.12 600.1,-281.29"/>
</g>
<!-- c11 -->
<g id="node41" class="node">
<title>c11</title>
<path fill="#2b6cb0" stroke="black" d="M739.93,-322.14C739.93,-322.14 707.43,-322.14 707.43,-322.14 701.43,-322.14 695.43,-316.14 695.43,-310.14 695.43,-310.14 695.43,-298.14 695.43,-298.14 695.43,-292.14 701.43,-286.14 707.43,-286.14 707.43,-286.14 739.93,-286.14 739.93,-286.14 745.93,-286.14 751.93,-292.14 751.93,-298.14 751.93,-298.14 751.93,-310.14 751.93,-310.14 751.93,-316.14 745.93,-322.14 739.93,-322.14"/>
<text text-anchor="middle" x="723.68" y="-299.31" font-family="Helvetica,sans-Serif" font-size="11.00" fill="white">Weather</text>
</g>
<!-- root&#45;&#45;c11 -->
<g id="edge40" class="edge">
<title>root&#45;&#45;c11</title>
<path fill="none" stroke="#94a3b8" d="M562.1,-473.26C596.09,-437.69 671.7,-358.54 706.07,-322.57"/>
</g>
<!-- c12 -->
<g id="node45" class="node">
<title>c12</title>
<path fill="#2b6cb0" stroke="black" d="M851.22,-395.56C851.22,-395.56 712.97,-395.56 712.97,-395.56 706.97,-395.56 700.97,-389.56 700.97,-383.56 700.97,-383.56 700.97,-371.56 700.97,-371.56 700.97,-365.56 706.97,-359.56 712.97,-359.56 712.97,-359.56 851.22,-359.56 851.22,-359.56 857.22,-359.56 863.22,-365.56 863.22,-371.56 863.22,-371.56 863.22,-383.56 863.22,-383.56 863.22,-389.56 857.22,-395.56 851.22,-395.56"/>
<text text-anchor="middle" x="782.1" y="-372.73" font-family="Helvetica,sans-Serif" font-size="11.00" fill="white">Project and Task Management</text>
</g>
<!-- root&#45;&#45;c12 -->
<g id="edge44" class="edge">
<title>root&#45;&#45;c12</title>
<path fill="none" stroke="#94a3b8" d="M580.21,-474.3C623.95,-453.34 698.27,-417.73 743.51,-396.05"/>
</g>
<!-- c13 -->
<g id="node48" class="node">
<title>c13</title>
<path fill="#2b6cb0" stroke="black" d="M824.08,-470.3C824.08,-470.3 794.08,-470.3 794.08,-470.3 788.08,-470.3 782.08,-464.3 782.08,-458.3 782.08,-458.3 782.08,-446.3 782.08,-446.3 782.08,-440.3 788.08,-434.3 794.08,-434.3 794.08,-434.3 824.08,-434.3 824.08,-434.3 830.08,-434.3 836.08,-440.3 836.08,-446.3 836.08,-446.3 836.08,-458.3 836.08,-458.3 836.08,-464.3 830.08,-470.3 824.08,-470.3"/>
<text text-anchor="middle" x="809.08" y="-447.47" font-family="Helvetica,sans-Serif" font-size="11.00" fill="white">Outliers</text>
</g>
<!-- root&#45;&#45;c13 -->
<g id="edge47" class="edge">
<title>root&#45;&#45;c13</title>
<path fill="none" stroke="#94a3b8" d="M616.09,-480.72C670.64,-472.69 742.95,-462.04 781.73,-456.33"/>
</g>
<!-- c0s0 -->
<g id="node3" class="node">
<title>c0s0</title>
<path fill="#e2e8f0" stroke="black" d="M1048.98,-548.84C1048.98,-548.84 1018.98,-548.84 1018.98,-548.84 1012.98,-548.84 1006.98,-542.84 1006.98,-536.84 1006.98,-536.84 1006.98,-524.84 1006.98,-524.84 1006.98,-518.84 1012.98,-512.84 1018.98,-512.84 1018.98,-512.84 1048.98,-512.84 1048.98,-512.84 1054.98,-512.84 1060.98,-518.84 1060.98,-524.84 1060.98,-524.84 1060.98,-536.84 1060.98,-536.84 1060.98,-542.84 1054.98,-548.84 1048.98,-548.84"/>
<text text-anchor="middle" x="1033.98" y="-526.01" font-family="Helvetica,sans-Serif" font-size="11.00">AWS</text>
</g>
<!-- c0&#45;&#45;c0s0 -->
<g id="edge2" class="edge">
<title>c0&#45;&#45;c0s0</title>
<path fill="none" stroke="#94a3b8" d="M860.83,-586.93C907.26,-571.89 970.84,-551.29 1006.62,-539.7"/>
</g>
<!-- c0s1 -->
<g id="node4" class="node">
<title>c0s1</title>
<path fill="#e2e8f0" stroke="black" d="M1041.56,-628.14C1041.56,-628.14 1011.56,-628.14 1011.56,-628.14 1005.56,-628.14 999.56,-622.14 999.56,-616.14 999.56,-616.14 999.56,-604.14 999.56,-604.14 999.56,-598.14 1005.56,-592.14 1011.56,-592.14 1011.56,-592.14 1041.56,-592.14 1041.56,-592.14 1047.56,-592.14 1053.56,-598.14 1053.56,-604.14 1053.56,-604.14 1053.56,-616.14 1053.56,-616.14 1053.56,-622.14 1047.56,-628.14 1041.56,-628.14"/>
<text text-anchor="middle" x="1026.56" y="-605.32" font-family="Helvetica,sans-Serif" font-size="11.00">Azure</text>
</g>
<!-- c0&#45;&#45;c0s1 -->
<g id="edge3" class="edge">
<title>c0&#45;&#45;c0s1</title>
<path fill="none" stroke="#94a3b8" d="M943.68,-608.35C964.82,-608.81 984.49,-609.23 999.36,-609.55"/>
</g>
<!-- c0s2 -->
<g id="node5" class="node">
<title>c0s2</title>
<path fill="#e2e8f0" stroke="black" d="M1031.23,-703.87C1031.23,-703.87 984.48,-703.87 984.48,-703.87 978.48,-703.87 972.48,-697.87 972.48,-691.87 972.48,-691.87 972.48,-679.87 972.48,-679.87 972.48,-673.87 978.48,-667.87 984.48,-667.87 984.48,-667.87 1031.23,-667.87 1031.23,-667.87 1037.23,-667.87 1043.23,-673.87 1043.23,-679.87 1043.23,-679.87 1043.23,-691.87 1043.23,-691.87 1043.23,-697.87 1037.23,-703.87 1031.23,-703.87"/>
<text text-anchor="middle" x="1007.85" y="-681.04" font-family="Helvetica,sans-Serif" font-size="11.00">Kubernetes</text>
</g>
<!-- c0&#45;&#45;c0s2 -->
<g id="edge4" class="edge">
<title>c0&#45;&#45;c0s2</title>
<path fill="none" stroke="#94a3b8" d="M850.75,-623.82C887.66,-638.4 938.39,-658.43 972.1,-671.75"/>
</g>
<!-- c0s3 -->
<g id="node6" class="node">
<title>c0s3</title>
<path fill="#e2e8f0" stroke="black" d="M1039.51,-773.29C1039.51,-773.29 912.51,-773.29 912.51,-773.29 906.51,-773.29 900.51,-767.29 900.51,-761.29 900.51,-761.29 900.51,-749.29 900.51,-749.29 900.51,-743.29 906.51,-737.29 912.51,-737.29 912.51,-737.29 1039.51,-737.29 1039.51,-737.29 1045.51,-737.29 1051.51,-743.29 1051.51,-749.29 1051.51,-749.29 1051.51,-761.29 1051.51,-761.29 1051.51,-767.29 1045.51,-773.29 1039.51,-773.29"/>
<text text-anchor="middle" x="976.01" y="-750.46" font-family="Helvetica,sans-Serif" font-size="11.00">Infrastructure as Code (IaC)</text>
</g>
<!-- c0&#45;&#45;c0s3 -->
<g id="edge5" class="edge">
<title>c0&#45;&#45;c0s3</title>
<path fill="none" stroke="#94a3b8" d="M825.07,-623.73C858.18,-652.59 921.96,-708.18 955.01,-736.99"/>
</g>
<!-- c0s4 -->
<g id="node7" class="node">
<title>c0s4</title>
<path fill="#e2e8f0" stroke="black" d="M957.54,-833.9C957.54,-833.9 904.04,-833.9 904.04,-833.9 898.04,-833.9 892.04,-827.9 892.04,-821.9 892.04,-821.9 892.04,-809.9 892.04,-809.9 892.04,-803.9 898.04,-797.9 904.04,-797.9 904.04,-797.9 957.54,-797.9 957.54,-797.9 963.54,-797.9 969.54,-803.9 969.54,-809.9 969.54,-809.9 969.54,-821.9 969.54,-821.9 969.54,-827.9 963.54,-833.9 957.54,-833.9"/>
<text text-anchor="middle" x="930.79" y="-811.07" font-family="Helvetica,sans-Serif" font-size="11.00">Observability</text>
</g>
<!-- c0&#45;&#45;c0s4 -->
<g id="edge6" class="edge">
<title>c0&#45;&#45;c0s4</title>
<path fill="none" stroke="#94a3b8" d="M812.22,-623.65C827.1,-655.9 860.29,-724.39 896.81,-776.99 901.72,-784.06 907.73,-791.3 913.32,-797.59"/>
</g>
<!-- c0s5 -->
<g id="node8" class="node">
<title>c0s5</title>
<path fill="#e2e8f0" stroke="black" d="M911.08,-883.43C911.08,-883.43 829.08,-883.43 829.08,-883.43 823.08,-883.43 817.08,-877.43 817.08,-871.43 817.08,-871.43 817.08,-859.43 817.08,-859.43 817.08,-853.43 823.08,-847.43 829.08,-847.43 829.08,-847.43 911.08,-847.43 911.08,-847.43 917.08,-847.43 923.08,-853.43 923.08,-859.43 923.08,-859.43 923.08,-871.43 923.08,-871.43 923.08,-877.43 917.08,-883.43 911.08,-883.43"/>
<text text-anchor="middle" x="870.08" y="-860.6" font-family="Helvetica,sans-Serif" font-size="11.00">Operational tooling</text>
</g>
<!-- c0&#45;&#45;c0s5 -->
<g id="edge7" class="edge">
<title>c0&#45;&#45;c0s5</title>
<path fill="none" stroke="#94a3b8" d="M808.62,-623.63C820.76,-671.39 853.3,-799.43 865.43,-847.16"/>
</g>
<!-- c1s0 -->
<g id="node10" class="node">
<title>c1s0</title>
<path fill="#e2e8f0" stroke="black" d="M804.69,-928.03C804.69,-928.03 763.94,-928.03 763.94,-928.03 757.94,-928.03 751.94,-922.03 751.94,-916.03 751.94,-916.03 751.94,-904.03 751.94,-904.03 751.94,-898.03 757.94,-892.03 763.94,-892.03 763.94,-892.03 804.69,-892.03 804.69,-892.03 810.69,-892.03 816.69,-898.03 816.69,-904.03 816.69,-904.03 816.69,-916.03 816.69,-916.03 816.69,-922.03 810.69,-928.03 804.69,-928.03"/>
<text text-anchor="middle" x="784.31" y="-905.2" font-family="Helvetica,sans-Serif" font-size="11.00">Playbooks</text>
</g>
<!-- c1&#45;&#45;c1s0 -->
<g id="edge9" class="edge">
<title>c1&#45;&#45;c1s0</title>
<path fill="none" stroke="#94a3b8" d="M726.28,-721.38C738.37,-760.66 766.6,-852.45 778.68,-891.7"/>
</g>
<!-- c1s1 -->
<g id="node11" class="node">
<title>c1s1</title>
<path fill="#e2e8f0" stroke="black" d="M721.3,-956.16C721.3,-956.16 661.05,-956.16 661.05,-956.16 655.05,-956.16 649.05,-950.16 649.05,-944.16 649.05,-944.16 649.05,-932.16 649.05,-932.16 649.05,-926.16 655.05,-920.16 661.05,-920.16 661.05,-920.16 721.3,-920.16 721.3,-920.16 727.3,-920.16 733.3,-926.16 733.3,-932.16 733.3,-932.16 733.3,-944.16 733.3,-944.16 733.3,-950.16 727.3,-956.16 721.3,-956.16"/>
<text text-anchor="middle" x="691.18" y="-933.33" font-family="Helvetica,sans-Serif" font-size="11.00">Example code</text>
</g>
<!-- c1&#45;&#45;c1s1 -->
<g id="edge10" class="edge">
<title>c1&#45;&#45;c1s1</title>
<path fill="none" stroke="#94a3b8" d="M718.32,-721.46C712.81,-765.42 698.97,-875.92 693.48,-919.79"/>
</g>
<!-- c2s0 -->
<g id="node13" class="node">
<title>c2s0</title>
<path fill="#e2e8f0" stroke="black" d="M610.58,-971.4C610.58,-971.4 539.83,-971.4 539.83,-971.4 533.83,-971.4 527.83,-965.4 527.83,-959.4 527.83,-959.4 527.83,-947.4 527.83,-947.4 527.83,-941.4 533.83,-935.4 539.83,-935.4 539.83,-935.4 610.58,-935.4 610.58,-935.4 616.58,-935.4 622.58,-941.4 622.58,-947.4 622.58,-947.4 622.58,-959.4 622.58,-959.4 622.58,-965.4 616.58,-971.4 610.58,-971.4"/>
<text text-anchor="middle" x="575.2" y="-948.58" font-family="Helvetica,sans-Serif" font-size="11.00">Proof of concept</text>
</g>
<!-- c2&#45;&#45;c2s0 -->
<g id="edge12" class="edge">
<title>c2&#45;&#45;c2s0</title>
<path fill="none" stroke="#94a3b8" d="M520.91,-749.17C532,-790.88 559.14,-892.99 570.3,-934.95"/>
</g>
<!-- c2s1 -->
<g id="node14" class="node">
<title>c2s1</title>
<path fill="#e2e8f0" stroke="black" d="M493.42,-967.71C493.42,-967.71 413.67,-967.71 413.67,-967.71 407.67,-967.71 401.67,-961.71 401.67,-955.71 401.67,-955.71 401.67,-943.71 401.67,-943.71 401.67,-937.71 407.67,-931.71 413.67,-931.71 413.67,-931.71 493.42,-931.71 493.42,-931.71 499.42,-931.71 505.42,-937.71 505.42,-943.71 505.42,-943.71 505.42,-955.71 505.42,-955.71 505.42,-961.71 499.42,-967.71 493.42,-967.71"/>
<text text-anchor="middle" x="453.54" y="-944.89" font-family="Helvetica,sans-Serif" font-size="11.00">Moonshot projects</text>
</g>
<!-- c2&#45;&#45;c2s1 -->
<g id="edge13" class="edge">
<title>c2&#45;&#45;c2s1</title>
<path fill="none" stroke="#94a3b8" d="M510.84,-749.24C499.08,-790.41 470.59,-890.06 458.8,-931.34"/>
</g>
<!-- c3s0 -->
<g id="node16" class="node">
<title>c3s0</title>
<path fill="#e2e8f0" stroke="black" d="M380.09,-947.98C380.09,-947.98 350.09,-947.98 350.09,-947.98 344.09,-947.98 338.09,-941.98 338.09,-935.98 338.09,-935.98 338.09,-923.98 338.09,-923.98 338.09,-917.98 344.09,-911.98 350.09,-911.98 350.09,-911.98 380.09,-911.98 380.09,-911.98 386.09,-911.98 392.09,-917.98 392.09,-923.98 392.09,-923.98 392.09,-935.98 392.09,-935.98 392.09,-941.98 386.09,-947.98 380.09,-947.98"/>
<text text-anchor="middle" x="365.09" y="-925.15" font-family="Helvetica,sans-Serif" font-size="11.00">Go</text>
</g>
<!-- c3&#45;&#45;c3s0 -->
<g id="edge15" class="edge">
<title>c3&#45;&#45;c3s0</title>
<path fill="none" stroke="#94a3b8" d="M358.23,-705.17C359.61,-750.22 363.15,-866.22 364.53,-911.49"/>
</g>
<!-- c3s1 -->
<g id="node17" class="node">
<title>c3s1</title>
<path fill="#e2e8f0" stroke="black" d="M297.06,-913.69C297.06,-913.69 267.06,-913.69 267.06,-913.69 261.06,-913.69 255.06,-907.69 255.06,-901.69 255.06,-901.69 255.06,-889.69 255.06,-889.69 255.06,-883.69 261.06,-877.69 267.06,-877.69 267.06,-877.69 297.06,-877.69 297.06,-877.69 303.06,-877.69 309.06,-883.69 309.06,-889.69 309.06,-889.69 309.06,-901.69 309.06,-901.69 309.06,-907.69 303.06,-913.69 297.06,-913.69"/>
<text text-anchor="middle" x="282.06" y="-890.87" font-family="Helvetica,sans-Serif" font-size="11.00">Python</text>
</g>
<!-- c3&#45;&#45;c3s1 -->
<g id="edge16" class="edge">
<title>c3&#45;&#45;c3s1</title>
<path fill="none" stroke="#94a3b8" d="M351.1,-705.06C336.8,-744.55 303.01,-837.84 288.68,-877.42"/>
</g>
<!-- c3s2 -->
<g id="node18" class="node">
<title>c3s2</title>
<path fill="#e2e8f0" stroke="black" d="M244.44,-867.22C244.44,-867.22 177.44,-867.22 177.44,-867.22 171.44,-867.22 165.44,-861.22 165.44,-855.22 165.44,-855.22 165.44,-843.22 165.44,-843.22 165.44,-837.22 171.44,-831.22 177.44,-831.22 177.44,-831.22 244.44,-831.22 244.44,-831.22 250.44,-831.22 256.44,-837.22 256.44,-843.22 256.44,-843.22 256.44,-855.22 256.44,-855.22 256.44,-861.22 250.44,-867.22 244.44,-867.22"/>
<text text-anchor="middle" x="210.94" y="-844.4" font-family="Helvetica,sans-Serif" font-size="11.00">Developer tools</text>
</g>
<!-- c3&#45;&#45;c3s2 -->
<g id="edge17" class="edge">
<title>c3&#45;&#45;c3s2</title>
<path fill="none" stroke="#94a3b8" d="M341.13,-705.2C312.95,-736.38 255.95,-799.43 227.66,-830.73"/>
</g>
<!-- c4s0 -->
<g id="node20" class="node">
<title>c4s0</title>
<path fill="#e2e8f0" stroke="black" d="M169.81,-809.98C169.81,-809.98 139.81,-809.98 139.81,-809.98 133.81,-809.98 127.81,-803.98 127.81,-797.98 127.81,-797.98 127.81,-785.98 127.81,-785.98 127.81,-779.98 133.81,-773.98 139.81,-773.98 139.81,-773.98 169.81,-773.98 169.81,-773.98 175.81,-773.98 181.81,-779.98 181.81,-785.98 181.81,-785.98 181.81,-797.98 181.81,-797.98 181.81,-803.98 175.81,-809.98 169.81,-809.98"/>
<text text-anchor="middle" x="154.81" y="-787.15" font-family="Helvetica,sans-Serif" font-size="11.00">AI skills</text>
</g>
<!-- c4&#45;&#45;c4s0 -->
<g id="edge19" class="edge">
<title>c4&#45;&#45;c4s0</title>
<path fill="none" stroke="#94a3b8" d="M295.1,-641.84C264.81,-674.25 202.21,-741.26 171.94,-773.65"/>
</g>
<!-- c4s1 -->
<g id="node21" class="node">
<title>c4s1</title>
<path fill="#e2e8f0" stroke="black" d="M165.63,-743.34C165.63,-743.34 51.38,-743.34 51.38,-743.34 45.38,-743.34 39.38,-737.34 39.38,-731.34 39.38,-731.34 39.38,-719.34 39.38,-719.34 39.38,-713.34 45.38,-707.34 51.38,-707.34 51.38,-707.34 165.63,-707.34 165.63,-707.34 171.63,-707.34 177.63,-713.34 177.63,-719.34 177.63,-719.34 177.63,-731.34 177.63,-731.34 177.63,-737.34 171.63,-743.34 165.63,-743.34"/>
<text text-anchor="middle" x="108.51" y="-720.51" font-family="Helvetica,sans-Serif" font-size="11.00">AI automation and tooling</text>
</g>
<!-- c4&#45;&#45;c4s1 -->
<g id="edge20" class="edge">
<title>c4&#45;&#45;c4s1</title>
<path fill="none" stroke="#94a3b8" d="M284.77,-637.23C248.71,-655.25 185.3,-686.95 145.18,-707.01"/>
</g>
<!-- c5s0 -->
<g id="node23" class="node">
<title>c5s0</title>
<path fill="#e2e8f0" stroke="black" d="M121.38,-669.4C121.38,-669.4 33.38,-669.4 33.38,-669.4 27.38,-669.4 21.38,-663.4 21.38,-657.4 21.38,-657.4 21.38,-645.4 21.38,-645.4 21.38,-639.4 27.38,-633.4 33.38,-633.4 33.38,-633.4 121.38,-633.4 121.38,-633.4 127.38,-633.4 133.38,-639.4 133.38,-645.4 133.38,-645.4 133.38,-657.4 133.38,-657.4 133.38,-663.4 127.38,-669.4 121.38,-669.4"/>
<text text-anchor="middle" x="77.38" y="-646.57" font-family="Helvetica,sans-Serif" font-size="11.00">Command&#45;line tools</text>
</g>
<!-- c5&#45;&#45;c5s0 -->
<g id="edge22" class="edge">
<title>c5&#45;&#45;c5s0</title>
<path fill="none" stroke="#94a3b8" d="M266.8,-563.73C228.96,-581.24 160.55,-612.9 117.12,-633"/>
</g>
<!-- c5s1 -->
<g id="node24" class="node">
<title>c5s1</title>
<path fill="#e2e8f0" stroke="black" d="M78.22,-590.6C78.22,-590.6 48.22,-590.6 48.22,-590.6 42.22,-590.6 36.22,-584.6 36.22,-578.6 36.22,-578.6 36.22,-566.6 36.22,-566.6 36.22,-560.6 42.22,-554.6 48.22,-554.6 48.22,-554.6 78.22,-554.6 78.22,-554.6 84.22,-554.6 90.22,-560.6 90.22,-566.6 90.22,-566.6 90.22,-578.6 90.22,-578.6 90.22,-584.6 84.22,-590.6 78.22,-590.6"/>
<text text-anchor="middle" x="63.22" y="-567.77" font-family="Helvetica,sans-Serif" font-size="11.00">Utilities</text>
</g>
<!-- c5&#45;&#45;c5s1 -->
<g id="edge23" class="edge">
<title>c5&#45;&#45;c5s1</title>
<path fill="none" stroke="#94a3b8" d="M266.86,-553.57C222.39,-557.73 135.04,-565.89 90.6,-570.04"/>
</g>
<!-- c6s0 -->
<g id="node26" class="node">
<title>c6s0</title>
<path fill="#e2e8f0" stroke="black" d="M94.73,-509.64C94.73,-509.64 21.73,-509.64 21.73,-509.64 15.73,-509.64 9.73,-503.64 9.73,-497.64 9.73,-497.64 9.73,-485.64 9.73,-485.64 9.73,-479.64 15.73,-473.64 21.73,-473.64 21.73,-473.64 94.73,-473.64 94.73,-473.64 100.73,-473.64 106.73,-479.64 106.73,-485.64 106.73,-485.64 106.73,-497.64 106.73,-497.64 106.73,-503.64 100.73,-509.64 94.73,-509.64"/>
<text text-anchor="middle" x="58.23" y="-486.82" font-family="Helvetica,sans-Serif" font-size="11.00">Web applications</text>
</g>
<!-- c6&#45;&#45;c6s0 -->
<g id="edge25" class="edge">
<title>c6&#45;&#45;c6s0</title>
<path fill="none" stroke="#94a3b8" d="M254.63,-474.19C214.69,-477.74 151.11,-483.39 107.17,-487.3"/>
</g>
<!-- c6s1 -->
<g id="node27" class="node">
<title>c6s1</title>
<path fill="#e2e8f0" stroke="black" d="M113.5,-429.17C113.5,-429.17 12,-429.17 12,-429.17 6,-429.17 0,-423.17 0,-417.17 0,-417.17 0,-405.17 0,-405.17 0,-399.17 6,-393.17 12,-393.17 12,-393.17 113.5,-393.17 113.5,-393.17 119.5,-393.17 125.5,-399.17 125.5,-405.17 125.5,-405.17 125.5,-417.17 125.5,-417.17 125.5,-423.17 119.5,-429.17 113.5,-429.17"/>
<text text-anchor="middle" x="62.75" y="-406.34" font-family="Helvetica,sans-Serif" font-size="11.00">Desktop and GUI tools</text>
</g>
<!-- c6&#45;&#45;c6s1 -->
<g id="edge26" class="edge">
<title>c6&#45;&#45;c6s1</title>
<path fill="none" stroke="#94a3b8" d="M254.59,-461.15C219.71,-452.07 166.96,-438.32 125.59,-427.54"/>
</g>
<!-- c7s0 -->
<g id="node29" class="node">
<title>c7s0</title>
<path fill="#e2e8f0" stroke="black" d="M105.75,-351.34C105.75,-351.34 52.25,-351.34 52.25,-351.34 46.25,-351.34 40.25,-345.34 40.25,-339.34 40.25,-339.34 40.25,-327.34 40.25,-327.34 40.25,-321.34 46.25,-315.34 52.25,-315.34 52.25,-315.34 105.75,-315.34 105.75,-315.34 111.75,-315.34 117.75,-321.34 117.75,-327.34 117.75,-327.34 117.75,-339.34 117.75,-339.34 117.75,-345.34 111.75,-351.34 105.75,-351.34"/>
<text text-anchor="middle" x="79" y="-328.52" font-family="Helvetica,sans-Serif" font-size="11.00">Raspberry Pi</text>
</g>
<!-- c7&#45;&#45;c7s0 -->
<g id="edge28" class="edge">
<title>c7&#45;&#45;c7s0</title>
<path fill="none" stroke="#94a3b8" d="M271.76,-384.89C231.4,-374.1 161.67,-355.45 118.06,-343.79"/>
</g>
<!-- c7s1 -->
<g id="node30" class="node">
<title>c7s1</title>
<path fill="#e2e8f0" stroke="black" d="M156.48,-278.73C156.48,-278.73 47.48,-278.73 47.48,-278.73 41.48,-278.73 35.48,-272.73 35.48,-266.73 35.48,-266.73 35.48,-254.73 35.48,-254.73 35.48,-248.73 41.48,-242.73 47.48,-242.73 47.48,-242.73 156.48,-242.73 156.48,-242.73 162.48,-242.73 168.48,-248.73 168.48,-254.73 168.48,-254.73 168.48,-266.73 168.48,-266.73 168.48,-272.73 162.48,-278.73 156.48,-278.73"/>
<text text-anchor="middle" x="101.98" y="-255.9" font-family="Helvetica,sans-Serif" font-size="11.00">Discrete I/O and devices</text>
</g>
<!-- c7&#45;&#45;c7s1 -->
<g id="edge29" class="edge">
<title>c7&#45;&#45;c7s1</title>
<path fill="none" stroke="#94a3b8" d="M275.43,-374.92C237.05,-349.65 168.51,-304.53 130.08,-279.23"/>
</g>
<!-- c8s0 -->
<g id="node32" class="node">
<title>c8s0</title>
<path fill="#e2e8f0" stroke="black" d="M225.48,-213.1C225.48,-213.1 36.98,-213.1 36.98,-213.1 30.98,-213.1 24.98,-207.1 24.98,-201.1 24.98,-201.1 24.98,-189.1 24.98,-189.1 24.98,-183.1 30.98,-177.1 36.98,-177.1 36.98,-177.1 225.48,-177.1 225.48,-177.1 231.48,-177.1 237.48,-183.1 237.48,-189.1 237.48,-189.1 237.48,-201.1 237.48,-201.1 237.48,-207.1 231.48,-213.1 225.48,-213.1"/>
<text text-anchor="middle" x="131.23" y="-190.27" font-family="Helvetica,sans-Serif" font-size="11.00">Personal knowledge management (PKM)</text>
</g>
<!-- c8&#45;&#45;c8s0 -->
<g id="edge31" class="edge">
<title>c8&#45;&#45;c8s0</title>
<path fill="none" stroke="#94a3b8" d="M314.84,-295.51C274.05,-273.2 205.51,-235.72 164.7,-213.41"/>
</g>
<!-- c8s1 -->
<g id="node33" class="node">
<title>c8s1</title>
<path fill="#e2e8f0" stroke="black" d="M249.72,-156.91C249.72,-156.91 76.22,-156.91 76.22,-156.91 70.22,-156.91 64.22,-150.91 64.22,-144.91 64.22,-144.91 64.22,-132.91 64.22,-132.91 64.22,-126.91 70.22,-120.91 76.22,-120.91 76.22,-120.91 249.72,-120.91 249.72,-120.91 255.72,-120.91 261.72,-126.91 261.72,-132.91 261.72,-132.91 261.72,-144.91 261.72,-144.91 261.72,-150.91 255.72,-156.91 249.72,-156.91"/>
<text text-anchor="middle" x="162.97" y="-134.08" font-family="Helvetica,sans-Serif" font-size="11.00">Personal content management (PCM)</text>
</g>
<!-- c8&#45;&#45;c8s1 -->
<g id="edge32" class="edge">
<title>c8&#45;&#45;c8s1</title>
<path fill="none" stroke="#94a3b8" d="M338.42,-295.49C321.82,-266.19 285.73,-208.5 241.18,-173.4 233.25,-167.16 224.02,-161.8 214.73,-157.29"/>
</g>
<!-- c8s2 -->
<g id="node34" class="node">
<title>c8s2</title>
<path fill="#e2e8f0" stroke="black" d="M249.87,-112.78C249.87,-112.78 159.62,-112.78 159.62,-112.78 153.62,-112.78 147.62,-106.78 147.62,-100.78 147.62,-100.78 147.62,-88.78 147.62,-88.78 147.62,-82.78 153.62,-76.78 159.62,-76.78 159.62,-76.78 249.87,-76.78 249.87,-76.78 255.87,-76.78 261.87,-82.78 261.87,-88.78 261.87,-88.78 261.87,-100.78 261.87,-100.78 261.87,-106.78 255.87,-112.78 249.87,-112.78"/>
<text text-anchor="middle" x="204.75" y="-89.96" font-family="Helvetica,sans-Serif" font-size="11.00">Documentation tools</text>
</g>
<!-- c8&#45;&#45;c8s2 -->
<g id="edge33" class="edge">
<title>c8&#45;&#45;c8s2</title>
<path fill="none" stroke="#94a3b8" d="M345.51,-295.32C338.8,-256.87 318.16,-167.63 265.42,-117.21 263.96,-115.81 262.4,-114.5 260.77,-113.27"/>
</g>
<!-- c9s0 -->
<g id="node36" class="node">
<title>c9s0</title>
<path fill="#e2e8f0" stroke="black" d="M339.52,-68.68C339.52,-68.68 271.77,-68.68 271.77,-68.68 265.77,-68.68 259.77,-62.68 259.77,-56.68 259.77,-56.68 259.77,-44.68 259.77,-44.68 259.77,-38.68 265.77,-32.68 271.77,-32.68 271.77,-32.68 339.52,-32.68 339.52,-32.68 345.52,-32.68 351.52,-38.68 351.52,-44.68 351.52,-44.68 351.52,-56.68 351.52,-56.68 351.52,-62.68 345.52,-68.68 339.52,-68.68"/>
<text text-anchor="middle" x="305.64" y="-45.86" font-family="Helvetica,sans-Serif" font-size="11.00">Book publishing</text>
</g>
<!-- c9&#45;&#45;c9s0 -->
<g id="edge35" class="edge">
<title>c9&#45;&#45;c9s0</title>
<path fill="none" stroke="#94a3b8" d="M453.4,-248.64C422.88,-207.75 349.86,-109.93 319.38,-69.09"/>
</g>
<!-- c9s1 -->
<g id="node37" class="node">
<title>c9s1</title>
<path fill="#e2e8f0" stroke="black" d="M461.83,-42.68C461.83,-42.68 371.58,-42.68 371.58,-42.68 365.58,-42.68 359.58,-36.68 359.58,-30.68 359.58,-30.68 359.58,-18.68 359.58,-18.68 359.58,-12.68 365.58,-6.68 371.58,-6.68 371.58,-6.68 461.83,-6.68 461.83,-6.68 467.83,-6.68 473.83,-12.68 473.83,-18.68 473.83,-18.68 473.83,-30.68 473.83,-30.68 473.83,-36.68 467.83,-42.68 461.83,-42.68"/>
<text text-anchor="middle" x="416.71" y="-19.86" font-family="Helvetica,sans-Serif" font-size="11.00">Markdown authoring</text>
</g>
<!-- c9&#45;&#45;c9s1 -->
<g id="edge36" class="edge">
<title>c9&#45;&#45;c9s1</title>
<path fill="none" stroke="#94a3b8" d="M463.38,-248.87C454.03,-203.95 429.94,-88.26 420.55,-43.12"/>
</g>
<!-- c10s0 -->
<g id="node39" class="node">
<title>c10s0</title>
<path fill="#e2e8f0" stroke="black" d="M620.87,-36C620.87,-36 493.87,-36 493.87,-36 487.87,-36 481.87,-30 481.87,-24 481.87,-24 481.87,-12 481.87,-12 481.87,-6 487.87,0 493.87,0 493.87,0 620.87,0 620.87,0 626.87,0 632.87,-6 632.87,-12 632.87,-12 632.87,-24 632.87,-24 632.87,-30 626.87,-36 620.87,-36"/>
<text text-anchor="middle" x="557.37" y="-13.18" font-family="Helvetica,sans-Serif" font-size="11.00">Amateur radio programming</text>
</g>
<!-- c10&#45;&#45;c10s0 -->
<g id="edge38" class="edge">
<title>c10&#45;&#45;c10s0</title>
<path fill="none" stroke="#94a3b8" d="M601.36,-244.5C592.52,-199 569.73,-81.66 560.92,-36.29"/>
</g>
<!-- c10s1 -->
<g id="node40" class="node">
<title>c10s1</title>
<path fill="#e2e8f0" stroke="black" d="M790.41,-57.95C790.41,-57.95 652.91,-57.95 652.91,-57.95 646.91,-57.95 640.91,-51.95 640.91,-45.95 640.91,-45.95 640.91,-33.95 640.91,-33.95 640.91,-27.95 646.91,-21.95 652.91,-21.95 652.91,-21.95 790.41,-21.95 790.41,-21.95 796.41,-21.95 802.41,-27.95 802.41,-33.95 802.41,-33.95 802.41,-45.95 802.41,-45.95 802.41,-51.95 796.41,-57.95 790.41,-57.95"/>
<text text-anchor="middle" x="721.66" y="-35.13" font-family="Helvetica,sans-Serif" font-size="11.00">Radio archives and references</text>
</g>
<!-- c10&#45;&#45;c10s1 -->
<g id="edge39" class="edge">
<title>c10&#45;&#45;c10s1</title>
<path fill="none" stroke="#94a3b8" d="M614.48,-244.66C636.37,-202.85 689.96,-100.5 711.98,-58.45"/>
</g>
<!-- c11s0 -->
<g id="node42" class="node">
<title>c11s0</title>
<path fill="#e2e8f0" stroke="black" d="M897.57,-101.98C897.57,-101.98 819.32,-101.98 819.32,-101.98 813.32,-101.98 807.32,-95.98 807.32,-89.98 807.32,-89.98 807.32,-77.98 807.32,-77.98 807.32,-71.98 813.32,-65.98 819.32,-65.98 819.32,-65.98 897.57,-65.98 897.57,-65.98 903.57,-65.98 909.57,-71.98 909.57,-77.98 909.57,-77.98 909.57,-89.98 909.57,-89.98 909.57,-95.98 903.57,-101.98 897.57,-101.98"/>
<text text-anchor="middle" x="858.45" y="-79.15" font-family="Helvetica,sans-Serif" font-size="11.00">Weather reporting</text>
</g>
<!-- c11&#45;&#45;c11s0 -->
<g id="edge41" class="edge">
<title>c11&#45;&#45;c11s0</title>
<path fill="none" stroke="#94a3b8" d="M734.94,-285.75C760.31,-244.3 821.7,-144.01 847.13,-102.47"/>
</g>
<!-- c11s1 -->
<g id="node43" class="node">
<title>c11s1</title>
<path fill="#e2e8f0" stroke="black" d="M993.95,-146.01C993.95,-146.01 884.95,-146.01 884.95,-146.01 878.95,-146.01 872.95,-140.01 872.95,-134.01 872.95,-134.01 872.95,-122.01 872.95,-122.01 872.95,-116.01 878.95,-110.01 884.95,-110.01 884.95,-110.01 993.95,-110.01 993.95,-110.01 999.95,-110.01 1005.95,-116.01 1005.95,-122.01 1005.95,-122.01 1005.95,-134.01 1005.95,-134.01 1005.95,-140.01 999.95,-146.01 993.95,-146.01"/>
<text text-anchor="middle" x="939.45" y="-123.19" font-family="Helvetica,sans-Serif" font-size="11.00">Weather instrumentation</text>
</g>
<!-- c11&#45;&#45;c11s1 -->
<g id="edge42" class="edge">
<title>c11&#45;&#45;c11s1</title>
<path fill="none" stroke="#94a3b8" d="M745.96,-285.95C787.3,-252.2 875.47,-180.24 916.97,-146.36"/>
</g>
<!-- c11s2 -->
<g id="node44" class="node">
<title>c11s2</title>
<path fill="#e2e8f0" stroke="black" d="M1011.21,-191.88C1011.21,-191.88 932.21,-191.88 932.21,-191.88 926.21,-191.88 920.21,-185.88 920.21,-179.88 920.21,-179.88 920.21,-167.88 920.21,-167.88 920.21,-161.88 926.21,-155.88 932.21,-155.88 932.21,-155.88 1011.21,-155.88 1011.21,-155.88 1017.21,-155.88 1023.21,-161.88 1023.21,-167.88 1023.21,-167.88 1023.21,-179.88 1023.21,-179.88 1023.21,-185.88 1017.21,-191.88 1011.21,-191.88"/>
<text text-anchor="middle" x="971.71" y="-169.05" font-family="Helvetica,sans-Serif" font-size="11.00">Weather decoding</text>
</g>
<!-- c11&#45;&#45;c11s2 -->
<g id="edge43" class="edge">
<title>c11&#45;&#45;c11s2</title>
<path fill="none" stroke="#94a3b8" d="M752.13,-289.19C797.81,-265.2 887.38,-218.16 936.84,-192.19"/>
</g>
<!-- c12s0 -->
<g id="node46" class="node">
<title>c12s0</title>
<path fill="#e2e8f0" stroke="black" d="M1055.09,-250.36C1055.09,-250.36 940.84,-250.36 940.84,-250.36 934.84,-250.36 928.84,-244.36 928.84,-238.36 928.84,-238.36 928.84,-226.36 928.84,-226.36 928.84,-220.36 934.84,-214.36 940.84,-214.36 940.84,-214.36 1055.09,-214.36 1055.09,-214.36 1061.09,-214.36 1067.09,-220.36 1067.09,-226.36 1067.09,-226.36 1067.09,-238.36 1067.09,-238.36 1067.09,-244.36 1061.09,-250.36 1055.09,-250.36"/>
<text text-anchor="middle" x="997.96" y="-227.53" font-family="Helvetica,sans-Serif" font-size="11.00">Issue and project tracking</text>
</g>
<!-- c12&#45;&#45;c12s0 -->
<g id="edge45" class="edge">
<title>c12&#45;&#45;c12s0</title>
<path fill="none" stroke="#94a3b8" d="M809.44,-359.17C850.85,-331.32 929.03,-278.73 970.5,-250.83"/>
</g>
<!-- c12s1 -->
<g id="node47" class="node">
<title>c12s1</title>
<path fill="#e2e8f0" stroke="black" d="M1051.71,-317.47C1051.71,-317.47 980.96,-317.47 980.96,-317.47 974.96,-317.47 968.96,-311.47 968.96,-305.47 968.96,-305.47 968.96,-293.47 968.96,-293.47 968.96,-287.47 974.96,-281.47 980.96,-281.47 980.96,-281.47 1051.71,-281.47 1051.71,-281.47 1057.71,-281.47 1063.71,-287.47 1063.71,-293.47 1063.71,-293.47 1063.71,-305.47 1063.71,-305.47 1063.71,-311.47 1057.71,-317.47 1051.71,-317.47"/>
<text text-anchor="middle" x="1016.33" y="-294.64" font-family="Helvetica,sans-Serif" font-size="11.00">Workflow tooling</text>
</g>
<!-- c12&#45;&#45;c12s1 -->
<g id="edge46" class="edge">
<title>c12&#45;&#45;c12s1</title>
<path fill="none" stroke="#94a3b8" d="M837.31,-359.15C877.21,-345.85 930.56,-328.06 968.62,-315.37"/>
</g>
<!-- c13s0 -->
<g id="node49" class="node">
<title>c13s0</title>
<path fill="#e2e8f0" stroke="black" d="M1092.53,-391.34C1092.53,-391.34 963.28,-391.34 963.28,-391.34 957.28,-391.34 951.28,-385.34 951.28,-379.34 951.28,-379.34 951.28,-367.34 951.28,-367.34 951.28,-361.34 957.28,-355.34 963.28,-355.34 963.28,-355.34 1092.53,-355.34 1092.53,-355.34 1098.53,-355.34 1104.53,-361.34 1104.53,-367.34 1104.53,-367.34 1104.53,-379.34 1104.53,-379.34 1104.53,-385.34 1098.53,-391.34 1092.53,-391.34"/>
<text text-anchor="middle" x="1027.91" y="-368.52" font-family="Helvetica,sans-Serif" font-size="11.00">Profile and meta repositories</text>
</g>
<!-- c13&#45;&#45;c13s0 -->
<g id="edge48" class="edge">
<title>c13&#45;&#45;c13s0</title>
<path fill="none" stroke="#94a3b8" d="M836.36,-442.46C871.41,-429.81 932.99,-407.59 976.86,-391.76"/>
</g>
<!-- c13s1 -->
<g id="node50" class="node">
<title>c13s1</title>
<path fill="#e2e8f0" stroke="black" d="M1084.99,-469.22C1084.99,-469.22 982.74,-469.22 982.74,-469.22 976.74,-469.22 970.74,-463.22 970.74,-457.22 970.74,-457.22 970.74,-445.22 970.74,-445.22 970.74,-439.22 976.74,-433.22 982.74,-433.22 982.74,-433.22 1084.99,-433.22 1084.99,-433.22 1090.99,-433.22 1096.99,-439.22 1096.99,-445.22 1096.99,-445.22 1096.99,-457.22 1096.99,-457.22 1096.99,-463.22 1090.99,-469.22 1084.99,-469.22"/>
<text text-anchor="middle" x="1033.86" y="-446.39" font-family="Helvetica,sans-Serif" font-size="11.00">Uncategorized projects</text>
</g>
<!-- c13&#45;&#45;c13s1 -->
<g id="edge49" class="edge">
<title>c13&#45;&#45;c13s1</title>
<path fill="none" stroke="#94a3b8" d="M836.2,-452.17C869.24,-452.01 926.15,-451.74 970.44,-451.52"/>
</g>
</g>
</svg>
